<?xml version="1.0" encoding="UTF-8" standalone="no"?>
<!-- Created with Inkscape (http://www.inkscape.org/) -->

<svg
   xmlns:dc="http://purl.org/dc/elements/1.1/"
   xmlns:cc="http://creativecommons.org/ns#"
   xmlns:rdf="http://www.w3.org/1999/02/22-rdf-syntax-ns#"
   xmlns:svg="http://www.w3.org/2000/svg"
   xmlns="http://www.w3.org/2000/svg"
   xmlns:sodipodi="http://sodipodi.sourceforge.net/DTD/sodipodi-0.dtd"
   xmlns:inkscape="http://www.inkscape.org/namespaces/inkscape"
   width="63.218769mm"
   height="88.088982mm"
   viewBox="0 0 63.218769 88.088981"
   version="1.1"
   id="svg20775"
   inkscape:version="0.92.5 (2060ec1f9f, 2020-04-08)"
   sodipodi:docname="3.svg">
  <defs
     id="defs20769">
    <filter
       inkscape:collect="always"
       style="color-interpolation-filters:sRGB"
       id="filter3434">
      <feBlend
         inkscape:collect="always"
         mode="multiply"
         in2="BackgroundImage"
         id="feBlend3436" />
    </filter>
    <filter
       inkscape:collect="always"
       style="color-interpolation-filters:sRGB"
       id="filter3438">
      <feBlend
         inkscape:collect="always"
         mode="multiply"
         in2="BackgroundImage"
         id="feBlend3440" />
    </filter>
    <filter
       inkscape:collect="always"
       style="color-interpolation-filters:sRGB"
       id="filter3442">
      <feBlend
         inkscape:collect="always"
         mode="multiply"
         in2="BackgroundImage"
         id="feBlend3444" />
    </filter>
    <filter
       inkscape:collect="always"
       style="color-interpolation-filters:sRGB"
       id="filter3446">
      <feBlend
         inkscape:collect="always"
         mode="multiply"
         in2="BackgroundImage"
         id="feBlend3448" />
    </filter>
    <filter
       inkscape:collect="always"
       style="color-interpolation-filters:sRGB"
       id="filter3450">
      <feBlend
         inkscape:collect="always"
         mode="multiply"
         in2="BackgroundImage"
         id="feBlend3452" />
    </filter>
    <filter
       inkscape:collect="always"
       style="color-interpolation-filters:sRGB"
       id="filter3454">
      <feBlend
         inkscape:collect="always"
         mode="multiply"
         in2="BackgroundImage"
         id="feBlend3456" />
    </filter>
    <filter
       inkscape:collect="always"
       style="color-interpolation-filters:sRGB"
       id="filter3458">
      <feBlend
         inkscape:collect="always"
         mode="multiply"
         in2="BackgroundImage"
         id="feBlend3460" />
    </filter>
  </defs>
  <sodipodi:namedview
     id="base"
     pagecolor="#ffffff"
     bordercolor="#666666"
     borderopacity="1.0"
     inkscape:pageopacity="0.0"
     inkscape:pageshadow="2"
     inkscape:zoom="2.8"
     inkscape:cx="508.08676"
     inkscape:cy="91.456076"
     inkscape:document-units="mm"
     inkscape:current-layer="layer1"
     showgrid="false"
     inkscape:window-width="3840"
     inkscape:window-height="2115"
     inkscape:window-x="3827"
     inkscape:window-y="-13"
     inkscape:window-maximized="1" />
  <metadata
     id="metadata20772">
    <rdf:RDF>
      <cc:Work
         rdf:about="">
        <dc:format>image/svg+xml</dc:format>
        <dc:type
           rdf:resource="http://purl.org/dc/dcmitype/StillImage" />
        <dc:title></dc:title>
      </cc:Work>
    </rdf:RDF>
  </metadata>
  <g
     inkscape:label="Layer 1"
     inkscape:groupmode="layer"
     id="layer1"
     transform="translate(374.40927,-289.80756)">
    <rect
       ry="2.9945719"
       rx="2.9985995"
       style="display:inline;opacity:1;fill:#ffffff;fill-opacity:1;stroke:#000000;stroke-width:0.52916664;stroke-miterlimit:4;stroke-dasharray:none;stroke-opacity:1;enable-background:new"
       id="rect6852-0-4"
       width="62.689602"
       height="87.559814"
       x="-374.14468"
       y="290.07214" />
    <g
       id="g21430"
       transform="translate(-91.823693,-17.576517)">
      <path
         transform="matrix(0.28083245,0,0,0.28081049,-558.32838,440.02501)"
         style="display:inline;opacity:1;filter:url(#filter3458);enable-background:new"
         sodipodi:nodetypes="cccccccccccc"
         inkscape:connector-curvature="0"
         id="path6816-2-4"
         d="m 1000.0368,-421.43493 c -4.31061,5.48214 -8.92281,8.6369 -8.99941,12.91389 -0.026,1.38495 0.8139,3.73892 3.4439,4.18949 1.7063,0.29097 4.0555,-0.94062 4.1046,-3.44272 -0.01,-0.49815 0.5914,-0.4852 0.5858,0.19738 -0.08,1.97364 -0.7809,4.27149 -1.9583,6.14196 1.8823,0 3.76451,0 5.64681,0 -1.1774,-1.87047 -1.878,-4.16832 -1.9583,-6.14196 -0.01,-0.68258 0.5933,-0.69553 0.5858,-0.19738 0.049,2.5021 2.3983,3.73369 4.1046,3.44272 2.63,-0.45057 3.4696,-2.80454 3.4439,-4.18949 -0.077,-4.27699 -4.6889,-7.43175 -8.9994,-12.91389 z" />
      <path
         transform="matrix(0.28083245,0,0,0.28081049,-558.32838,440.02501)"
         style="display:inline;opacity:1;filter:url(#filter3454);enable-background:new"
         sodipodi:nodetypes="cccccccccccc"
         inkscape:connector-curvature="0"
         id="path6820-0-2"
         d="m 1188.8313,-209.57029 c -4.3106,-5.48214 -8.9228,-8.6369 -8.9994,-12.91389 -0.026,-1.38495 0.8139,-3.73892 3.4439,-4.18949 1.7063,-0.29097 4.0555,0.94062 4.1046,3.44272 -0.01,0.49815 0.5914,0.4852 0.5858,-0.19738 -0.08,-1.97364 -0.7809,-4.27149 -1.9583,-6.14196 1.8823,0 3.7645,0 5.6468,0 -1.1774,1.87047 -1.878,4.16832 -1.9583,6.14196 -0.01,0.68258 0.5933,0.69553 0.5858,0.19738 0.049,-2.5021 2.3983,-3.73369 4.1046,-3.44272 2.63,0.45057 3.4696,2.80454 3.4439,4.18949 -0.077,4.27699 -4.6889,7.43175 -8.9994,12.91389 z" />
      <path
         transform="matrix(0.28083245,0,0,0.28081049,-558.32838,440.02501)"
         sodipodi:nodetypes="cccccccccccc"
         inkscape:connector-curvature="0"
         id="path6828-8-3"
         d="m 1094.4337,-438.71333 c -9.226,13.15712 -19.0977,20.72857 -19.2617,30.99333 -0.055,3.3239 1.7421,8.97342 7.3711,10.05478 3.652,0.69833 8.6801,-2.25748 8.7851,-8.26252 -0.016,-1.19555 1.2659,-1.16448 1.2539,0.47372 -0.172,4.73672 -1.6714,10.25156 -4.1914,14.74069 4.0287,0 8.0573,0 12.086,0 -2.52,-4.48913 -4.0194,-10.00397 -4.1914,-14.74069 -0.012,-1.6382 1.2699,-1.66927 1.2539,-0.47372 0.105,6.00504 5.1331,8.96085 8.7851,8.26252 5.629,-1.08136 7.4261,-6.73088 7.3711,-10.05478 -0.164,-10.26476 -10.0357,-17.83621 -19.2617,-30.99333 z"
         style="display:inline;opacity:1;filter:url(#filter3450);enable-background:new" />
      <path
         transform="matrix(0.28083245,0,0,0.28081049,-558.32838,440.02501)"
         sodipodi:nodetypes="cccccccccccc"
         inkscape:connector-curvature="0"
         id="path6842-0-7"
         d="m 1094.4337,-192.29202 c -9.226,-13.15712 -19.0977,-20.72857 -19.2617,-30.99333 -0.055,-3.3239 1.7421,-8.97342 7.3711,-10.05478 3.652,-0.69833 8.6801,2.25748 8.7851,8.26252 -0.016,1.19555 1.2659,1.16448 1.2539,-0.47372 -0.172,-4.73672 -1.6714,-10.25156 -4.1914,-14.74069 4.0287,0 8.0573,0 12.086,0 -2.52,4.48913 -4.0194,10.00397 -4.1914,14.74069 -0.012,1.6382 1.2699,1.66927 1.2539,0.47372 0.105,-6.00504 5.1331,-8.96085 8.7851,-8.26252 5.629,1.08136 7.4261,6.73088 7.3711,10.05478 -0.164,10.26476 -10.0357,17.83621 -19.2617,30.99333 z"
         style="display:inline;opacity:1;filter:url(#filter3446);enable-background:new" />
      <path
         transform="matrix(0.28083245,0,0,0.28081049,-558.32838,440.02501)"
         sodipodi:nodetypes="cccccccccccc"
         inkscape:connector-curvature="0"
         id="path6844-7-0"
         d="m 1094.4337,-339.50268 c -9.226,13.15712 -19.0977,20.72857 -19.2617,30.99333 -0.055,3.3239 1.7421,8.97342 7.3711,10.05478 3.652,0.69833 8.6801,-2.25748 8.7851,-8.26252 -0.016,-1.19555 1.2659,-1.16448 1.2539,0.47372 -0.172,4.73672 -1.6714,10.25156 -4.1914,14.74069 4.0287,0 8.0573,0 12.086,0 -2.52,-4.48913 -4.0194,-10.00397 -4.1914,-14.74069 -0.012,-1.6382 1.2699,-1.66927 1.2539,-0.47372 0.105,6.00504 5.1331,8.96085 8.7851,8.26252 5.629,-1.08136 7.4261,-6.73088 7.3711,-10.05478 -0.164,-10.26476 -10.0357,-17.83621 -19.2617,-30.99333 z"
         style="display:inline;opacity:1;filter:url(#filter3442);enable-background:new" />
      <path
         transform="matrix(0.28083245,0,0,0.28081049,-558.32838,440.02501)"
         style="display:inline;opacity:1;filter:url(#filter3438);enable-background:new"
         inkscape:connector-curvature="0"
         id="path17-9-11-4"
         d="m 989.32531,-431.80414 2.5406,-1.8686 c 2.2049,3.5904 4.6708,5.9552 8.44299,5.5493 5.6596,-0.3889 8.0047,-6.3218 6.8206,-10.7921 -1.1455,-4.0106 -5.8319,-5.9643 -9.55779,-3.826 -0.8794,0.5067 -1.7279,0.9205 -1.8938,0.9205 -0.3908,0 -1.2754,-1.7598 -1.1545,-2.2967 2.5006,-3.6519 8.57289,-10.0496 8.57289,-10.0496 h -9.48709 v 4.2843 h -3.641 v -7.6874 h 18.54209 v 2.6083 c 0,0 -4.9679,5.1524 -6.6097,7.9742 4.0435,0.1479 7.3027,2.7104 8.4727,6.7617 0.6827,2.133 0.3767,7.0118 -0.5169,9.1147 -1.4926,3.5053 -5.5696,6.3493 -9.2967,6.513 -6.25749,0.4203 -9.57709,-3.9636 -11.23439,-7.2056 z m 0,0" />
      <path
         transform="matrix(0.28083245,0,0,0.28081049,-558.32838,440.02501)"
         inkscape:connector-curvature="0"
         id="path17-9-1-0-8"
         d="m 1199.5399,-199.20108 -2.5406,1.8686 c -2.2049,-3.5904 -4.6708,-5.9552 -8.443,-5.5493 -5.6596,0.3889 -8.0047,6.3218 -6.8206,10.7921 1.1455,4.0106 5.8319,5.9643 9.5578,3.826 0.8794,-0.5067 1.7279,-0.9205 1.8938,-0.9205 0.3908,0 1.2754,1.7598 1.1545,2.2967 -2.5006,3.6519 -8.5729,10.0496 -8.5729,10.0496 h 9.4871 v -4.2843 h 3.641 v 7.6874 h -18.5421 v -2.6083 c 0,0 4.9679,-5.1524 6.6097,-7.9742 -4.0435,-0.1479 -7.3027,-2.7104 -8.4727,-6.7617 -0.6827,-2.133 -0.3767,-7.0118 0.5169,-9.1147 1.4926,-3.5053 5.5696,-6.3493 9.2967,-6.513 6.2575,-0.4203 9.5771,3.9636 11.2344,7.2056 z m 0,0"
         style="display:inline;opacity:1;filter:url(#filter3434);enable-background:new" />
    </g>
  </g>
</svg>
