<?xml version="1.0" encoding="UTF-8" standalone="no"?>
<!-- Created with Inkscape (http://www.inkscape.org/) -->

<svg
   xmlns:dc="http://purl.org/dc/elements/1.1/"
   xmlns:cc="http://creativecommons.org/ns#"
   xmlns:rdf="http://www.w3.org/1999/02/22-rdf-syntax-ns#"
   xmlns:svg="http://www.w3.org/2000/svg"
   xmlns="http://www.w3.org/2000/svg"
   xmlns:sodipodi="http://sodipodi.sourceforge.net/DTD/sodipodi-0.dtd"
   xmlns:inkscape="http://www.inkscape.org/namespaces/inkscape"
   width="63.218769mm"
   height="88.088982mm"
   viewBox="0 0 63.218769 88.088982"
   version="1.1"
   id="svg22021"
   inkscape:version="0.92.5 (2060ec1f9f, 2020-04-08)"
   sodipodi:docname="4.svg">
  <defs
     id="defs22015" />
  <sodipodi:namedview
     id="base"
     pagecolor="#ffffff"
     bordercolor="#666666"
     borderopacity="1.0"
     inkscape:pageopacity="0.0"
     inkscape:pageshadow="2"
     inkscape:zoom="1.979899"
     inkscape:cx="496.37797"
     inkscape:cy="133.89977"
     inkscape:document-units="mm"
     inkscape:current-layer="layer1"
     showgrid="false"
     inkscape:window-width="3840"
     inkscape:window-height="2115"
     inkscape:window-x="3827"
     inkscape:window-y="-13"
     inkscape:window-maximized="1" />
  <metadata
     id="metadata22018">
    <rdf:RDF>
      <cc:Work
         rdf:about="">
        <dc:format>image/svg+xml</dc:format>
        <dc:type
           rdf:resource="http://purl.org/dc/dcmitype/StillImage" />
        <dc:title></dc:title>
      </cc:Work>
    </rdf:RDF>
  </metadata>
  <g
     inkscape:label="Layer 1"
     inkscape:groupmode="layer"
     id="layer1"
     transform="translate(599.32965,271.67544)">
    <rect
       ry="2.9945719"
       rx="2.9985995"
       style="display:inline;opacity:1;fill:#ffffff;fill-opacity:1;stroke:#000000;stroke-width:0.52916664;stroke-miterlimit:4;stroke-dasharray:none;stroke-opacity:1;enable-background:new"
       id="rect6852-0-4"
       width="62.689602"
       height="87.559814"
       x="-599.06506"
       y="-271.41086" />
    <path
       style="display:inline;opacity:1;stroke-width:0.28082111;enable-background:new"
       sodipodi:nodetypes="cccccccccccc"
       inkscape:connector-curvature="0"
       id="path6882-1-0"
       d="m -582.25787,-262.2298 c -2.59095,3.69466 -5.36324,5.8208 -5.4093,8.70326 -0.0154,0.93338 0.48924,2.51983 2.07004,2.82348 1.0256,0.1961 2.43765,-0.63392 2.46714,-2.3202 -0.005,-0.33572 0.3555,-0.327 0.35213,0.13303 -0.0483,1.33012 -0.46938,2.87874 -1.17708,4.13934 1.13139,0 2.26275,0 3.39414,0 -0.7077,-1.2606 -1.12878,-2.80922 -1.17708,-4.13934 -0.003,-0.46003 0.35663,-0.46875 0.35213,-0.13303 0.0295,1.68628 1.44154,2.5163 2.46714,2.3202 1.5808,-0.30365 2.08548,-1.8901 2.07004,-2.82348 -0.0461,-2.88246 -2.81835,-5.0086 -5.4093,-8.70326 z" />
    <path
       style="display:inline;opacity:1;stroke-width:0.28082111;enable-background:new"
       sodipodi:nodetypes="cccccccccccc"
       inkscape:connector-curvature="0"
       id="path6884-6-5"
       d="m -594.22987,-257.37784 c -1.21055,1.53944 -2.5058,2.42533 -2.52731,3.62636 -0.007,0.3889 0.22856,1.04992 0.96715,1.17645 0.47919,0.0817 1.13892,-0.26414 1.1527,-0.96675 -0.003,-0.13989 0.16609,-0.13625 0.16452,0.0554 -0.0225,0.55422 -0.21931,1.19948 -0.54996,1.72472 0.52861,0 1.05719,0 1.5858,0 -0.33065,-0.52524 -0.5274,-1.1705 -0.54995,-1.72472 -0.003,-0.19168 0.16662,-0.19532 0.16451,-0.0554 0.0138,0.70261 0.67352,1.04846 1.1527,0.96675 0.73859,-0.12653 0.97438,-0.78755 0.96716,-1.17645 -0.0216,-1.20103 -1.31679,-2.08692 -2.52732,-3.62636 z" />
    <path
       style="display:inline;opacity:1;stroke-width:0.28082111;enable-background:new"
       sodipodi:nodetypes="cccccccccccc"
       inkscape:connector-curvature="0"
       id="path6888-1-5"
       d="m -541.21038,-197.88402 c -1.21056,-1.53945 -2.50581,-2.42534 -2.52732,-3.62636 -0.007,-0.38891 0.22857,-1.04993 0.96716,-1.17645 0.47918,-0.0817 1.13891,0.26413 1.1527,0.96675 -0.003,0.13988 0.16608,0.13625 0.16451,-0.0554 -0.0225,-0.55422 -0.2193,-1.19948 -0.54996,-1.72473 0.52862,0 1.0572,0 1.58581,0 -0.33066,0.52525 -0.52741,1.17051 -0.54996,1.72473 -0.003,0.19167 0.16662,0.19531 0.16451,0.0554 0.0138,-0.70262 0.67352,-1.04846 1.15271,-0.96675 0.73858,0.12652 0.97437,0.78754 0.96715,1.17645 -0.0216,1.20102 -1.31679,2.08691 -2.52731,3.62636 z" />
    <path
       sodipodi:nodetypes="cccccccccccc"
       inkscape:connector-curvature="0"
       id="path6890-4-9"
       d="m -553.18258,-262.2298 c -2.59095,3.69466 -5.36324,5.8208 -5.40929,8.70326 -0.0154,0.93338 0.48923,2.51983 2.07003,2.82348 1.0256,0.1961 2.43765,-0.63392 2.46714,-2.3202 -0.005,-0.33572 0.35551,-0.327 0.35214,0.13303 -0.0483,1.33012 -0.46939,2.87874 -1.17708,4.13934 1.13138,0 2.26274,0 3.39413,0 -0.7077,-1.2606 -1.12878,-2.80922 -1.17708,-4.13934 -0.003,-0.46003 0.35663,-0.46875 0.35214,-0.13303 0.0295,1.68628 1.44153,2.5163 2.46713,2.3202 1.5808,-0.30365 2.08549,-1.8901 2.07004,-2.82348 -0.0461,-2.88246 -2.81834,-5.0086 -5.4093,-8.70326 z"
       style="display:inline;opacity:1;stroke-width:0.28082111;enable-background:new" />
    <path
       sodipodi:nodetypes="cccccccccccc"
       inkscape:connector-curvature="0"
       id="path6902-7-5"
       d="m -582.25787,-193.03211 c -2.59095,-3.69465 -5.36324,-5.82079 -5.4093,-8.70325 -0.0154,-0.93338 0.48924,-2.51983 2.07004,-2.82349 1.0256,-0.19609 2.43765,0.63393 2.46714,2.32021 -0.005,0.33572 0.3555,0.327 0.35213,-0.13303 -0.0483,-1.33012 -0.46938,-2.87875 -1.17708,-4.13934 1.13139,0 2.26275,0 3.39414,0 -0.7077,1.26059 -1.12878,2.80922 -1.17708,4.13934 -0.003,0.46003 0.35663,0.46875 0.35213,0.13303 0.0295,-1.68628 1.44154,-2.5163 2.46714,-2.32021 1.5808,0.30366 2.08548,1.89011 2.07004,2.82349 -0.0461,2.88246 -2.81835,5.0086 -5.4093,8.70325 z"
       style="display:inline;opacity:1;stroke-width:0.28082111;enable-background:new" />
    <path
       sodipodi:nodetypes="cccccccccccc"
       inkscape:connector-curvature="0"
       id="path6904-9-7"
       d="m -553.18258,-193.03211 c -2.59095,-3.69465 -5.36324,-5.82079 -5.40929,-8.70325 -0.0154,-0.93338 0.48923,-2.51983 2.07003,-2.82349 1.0256,-0.19609 2.43765,0.63393 2.46714,2.32021 -0.005,0.33572 0.35551,0.327 0.35214,-0.13303 -0.0483,-1.33012 -0.46939,-2.87875 -1.17708,-4.13934 1.13138,0 2.26274,0 3.39413,0 -0.7077,1.26059 -1.12878,2.80922 -1.17708,4.13934 -0.003,0.46003 0.35663,0.46875 0.35214,0.13303 0.0295,-1.68628 1.44153,-2.5163 2.46713,-2.32021 1.5808,0.30366 2.08549,1.89011 2.07004,2.82349 -0.0461,2.88246 -2.81834,5.0086 -5.4093,8.70325 z"
       style="display:inline;opacity:1;stroke-width:0.28082111;enable-background:new" />
    <path
       d="m -594.16528,-258.25948 v -0.81845 h 0.73873 v -1.35013 h -3.6951 v -0.95268 l 3.9984,-6.14436 0.65316,0.003 v 6.14105 h 1.13119 v 0.95267 h -1.13119 l -0.0213,1.35014 h 0.61921 v 0.81958 h -2.29307 z m 0.73873,-7.01613 -2.5386,3.89524 h 2.5386 z m 0,0"
       id="path19-08-0-9"
       inkscape:connector-curvature="0"
       style="display:inline;opacity:1;stroke-width:0.28082111;enable-background:new" />
    <path
       style="display:inline;opacity:1;stroke-width:0.28082111;enable-background:new"
       d="m -541.2754,-197.00239 v 0.81845 h -0.73873 v 1.35014 h 3.6951 v 0.95268 l -3.99839,6.14435 -0.65316,-0.003 v -6.141 h -1.13119 v -0.95268 h 1.13119 l 0.0214,-1.35014 h -0.61921 v -0.81957 h 2.29308 z m -0.73873,7.01614 2.53861,-3.89524 h -2.53861 z m 0,0"
       id="path19-08-1-1-4"
       inkscape:connector-curvature="0" />
  </g>
</svg>
