<?xml version="1.0" encoding="utf-8"?>
<!-- Generator: Adobe Illustrator 21.1.0, SVG Export Plug-In . SVG Version: 6.00 Build 0)  -->
<svg version="1.1" id="Lager_1" xmlns="http://www.w3.org/2000/svg" xmlns:xlink="http://www.w3.org/1999/xlink" x="0px" y="0px"
	 viewBox="0 0 400 400" style="enable-background:new 0 0 400 400;" xml:space="preserve">
<style type="text/css">
	.st0{filter:url(#b);}
	.st1{fill:#333333;}
	.st2{filter:url(#k);}
	.st3{fill:none;stroke:url(#SVGID_1_);stroke-width:4.1411;stroke-linecap:round;}
	.st4{fill:url(#SVGID_2_);}
	.st5{opacity:0.8;filter:url(#j);enable-background:new    ;}
	.st6{fill:url(#SVGID_3_);}
	.st7{opacity:0.8;fill:url(#SVGID_4_);enable-background:new    ;}
	.st8{opacity:0.7;fill:url(#SVGID_5_);enable-background:new    ;}
	.st9{opacity:0.6;fill:url(#SVGID_6_);enable-background:new    ;}
</style>
<filter  id="k">
	<feGaussianBlur  stdDeviation="5.29855"></feGaussianBlur>
</filter>
<filter  id="j">
	<feGaussianBlur  stdDeviation="1.04638"></feGaussianBlur>
</filter>
<filter  id="b">
	<feGaussianBlur  stdDeviation="5.25714"></feGaussianBlur>
</filter>
<g class="st0">
	<path d="M391.5,203c0.7,105.8-84.6,192-190.3,192.7C95.4,396.3,9.1,311.1,8.5,205.3c0-0.8,0-1.6,0-2.4C7.8,97.2,93,11,198.8,10.3
		s192,84.6,192.7,190.3C391.5,201.4,391.5,202.2,391.5,203L391.5,203z"/>
</g>
<path class="st1" d="M391.5,196.9c0.7,105.8-84.6,192-190.3,192.7C95.4,390.3,9.1,305.1,8.5,199.3c0-0.8,0-1.6,0-2.4
	C7.8,91.2,93,4.9,198.8,4.3s192,84.6,192.7,190.3C391.5,195.4,391.5,196.2,391.5,196.9L391.5,196.9z"/>
<g class="st0">
	<path d="M377.8,196.2c0.6,98.2-78.5,178.3-176.7,178.9c-98.2,0.6-178.3-78.5-178.9-176.7c0-0.7,0-1.5,0-2.2
		C21.5,98,100.7,17.9,198.9,17.3S377.2,95.8,377.8,194C377.8,194.8,377.8,195.5,377.8,196.2L377.8,196.2z"/>
</g>
<g class="st2">
	
		<linearGradient id="SVGID_1_" gradientUnits="userSpaceOnUse" x1="-570.1458" y1="-182.4224" x2="-307.8526" y2="97.7308" gradientTransform="matrix(0.6549 0 0 -0.6549 481.803 174.5249)">
		<stop  offset="0" style="stop-color:#FFFFFF"/>
		<stop  offset="1" style="stop-color:#FFFFFF;stop-opacity:0"/>
	</linearGradient>
	<path class="st3" d="M372.1,196.2c0.6,95.1-76,172.6-171.1,173.2C106,370,28.4,293.4,27.8,198.3c0-0.7,0-1.4,0-2.1
		c-0.6-95.1,76-172.6,171.1-173.2c95.1-0.6,172.6,76,173.2,171.1C372.1,194.8,372.1,195.5,372.1,196.2z"/>
</g>
<radialGradient id="SVGID_2_" cx="-430.3752" cy="-33.1346" r="262.8628" gradientTransform="matrix(0.6549 0 0 -0.6549 481.803 174.5249)" gradientUnits="userSpaceOnUse">
	<stop  offset="0" style="stop-color:#F0F7F9"/>
	<stop  offset="1" style="stop-color:#CCCCCC"/>
</radialGradient>
<path class="st4" d="M372.1,196.2c0.6,95.1-76,172.6-171.1,173.2C106,370,28.4,293.4,27.8,198.3c0-0.7,0-1.4,0-2.1
	c-0.6-95.1,76-172.6,171.1-173.2c95.1-0.6,172.6,76,173.2,171.1C372.1,194.8,372.1,195.5,372.1,196.2z"/>
<path d="M195.2,37.4l1.2,21.3h7.3l1.2-21.3H195.2L195.2,37.4z M185.4,38.1l-4,0.4l2.6,15.8l2.2-0.2L185.4,38.1L185.4,38.1z
	 M214.6,38.1l-0.8,16l2.2,0.2l2.6-15.8L214.6,38.1L214.6,38.1z M168.9,40.5l-4,0.8l4.2,15.5l2.2-0.5L168.9,40.5L168.9,40.5z
	 M231,40.5l-2.4,15.8l2.2,0.5l4.2-15.4L231,40.5L231,40.5z M152.8,44.5l-3.8,1.2l5.8,14.9l2.1-0.7L152.8,44.5L152.8,44.5z
	 M247.1,44.5l-4.1,15.5l2.1,0.7l5.8-14.9L247.1,44.5L247.1,44.5z M137.2,50.3l-3.7,1.6l7.3,14.2l2-0.9L137.2,50.3L137.2,50.3z
	 M262.7,50.3l-5.7,15l2,0.9l7.3-14.3L262.7,50.3L262.7,50.3z M124.8,56.3l-8.4,4.8L128.1,79l6.3-3.6L124.8,56.3z M275.2,56.3
	l-9.6,19.1l6.3,3.6l11.7-17.9L275.2,56.3L275.2,56.3z M108.3,66.5l-3.3,2.4l10.1,12.4l1.8-1.3L108.3,66.5L108.3,66.5z M291.7,66.5
	L283,80l1.8,1.3L295,68.9L291.7,66.5L291.7,66.5z M95.2,76.8l-3,2.7l11.4,11.3l1.7-1.5L95.2,76.8L95.2,76.8z M304.8,76.9l-10,12.5
	l1.6,1.5l11.4-11.3L304.8,76.9L304.8,76.9z M83.3,88.4l-2.7,3l12.5,10l1.5-1.7L83.3,88.4L83.3,88.4z M316.7,88.4l-11.3,11.4l1.5,1.6
	l12.5-10L316.7,88.4L316.7,88.4z M72.7,101.2l-2.4,3.3l13.5,8.7l1.3-1.8L72.7,101.2L72.7,101.2z M327.3,101.2l-12.4,10.1l1.3,1.8
	l13.5-8.7L327.3,101.2L327.3,101.2z M64.9,112.6L60,121l19.1,9.6l3.6-6.3L64.9,112.6z M335.1,112.6l-17.9,11.7l3.6,6.3l19.1-9.6
	L335.1,112.6z M55.7,129.8l-1.6,3.7l15,5.7l0.9-2L55.7,129.8L55.7,129.8z M344.2,129.8l-14.2,7.3l0.9,2l15-5.7L344.2,129.8
	L344.2,129.8z M49.6,145.2l-1.2,3.9l15.5,4.1l0.7-2.1L49.6,145.2L49.6,145.2z M350.4,145.2l-14.9,5.8l0.7,2.1l15.5-4.1L350.4,145.2
	L350.4,145.2z M45,161.2l-0.8,3.9l15.8,2.4l0.5-2.2L45,161.2L45,161.2z M354.9,161.2l-15.5,4.2l0.5,2.2l15.8-2.4L354.9,161.2
	L354.9,161.2z M42.2,177.6l-0.4,4l16,0.8l0.2-2.2L42.2,177.6L42.2,177.6z M357.7,177.6l-15.8,2.6l0.2,2.2l16-0.8L357.7,177.6
	L357.7,177.6z M41.1,191.4v9.7l21.3-1.2v-7.3L41.1,191.4L41.1,191.4z M358.8,191.4l-21.3,1.2v7.3l21.3,1.2V191.4L358.8,191.4z
	 M57.8,210l-16,0.8l0.4,4l15.8-2.6L57.8,210L57.8,210z M342.1,210l-0.2,2.2l15.8,2.6l0.4-4L342.1,210L342.1,210z M60,224.8
	l-15.8,2.4l0.8,4l15.5-4.2L60,224.8L60,224.8z M339.9,224.8l-0.5,2.2l15.5,4.2l0.8-4L339.9,224.8L339.9,224.8z M63.8,239.3
	l-15.5,4.1l1.2,3.8l14.9-5.8L63.8,239.3L63.8,239.3z M336.1,239.3l-0.7,2.1l14.9,5.8l1.2-3.8L336.1,239.3L336.1,239.3z M69,253.3
	l-15,5.7l1.6,3.7l14.2-7.3L69,253.3L69,253.3z M330.9,253.3l-0.9,2l14.2,7.3l1.6-3.7L330.9,253.3L330.9,253.3z M79.1,261.8L60,271.4
	l4.8,8.4l17.9-11.7L79.1,261.8z M320.9,261.8l-3.6,6.3l17.9,11.7l4.8-8.4L320.9,261.8z M83.8,279.3l-13.5,8.7l2.4,3.3l12.4-10.1
	L83.8,279.3L83.8,279.3z M316.2,279.3l-1.3,1.8l12.4,10.1l2.4-3.3L316.2,279.3L316.2,279.3z M93.1,290.9l-12.5,10l2.7,3l11.3-11.4
	L93.1,290.9L93.1,290.9z M306.9,291l-1.5,1.7l11.3,11.4l2.7-3L306.9,291L306.9,291z M103.6,301.6l-11.4,11.3l3,2.7l10-12.5
	L103.6,301.6L103.6,301.6z M296.4,301.6l-1.7,1.5l10,12.5l3-2.7L296.4,301.6L296.4,301.6z M115.1,311.1L105,323.5l3.3,2.4l8.7-13.5
	L115.1,311.1L115.1,311.1z M284.8,311.1l-1.8,1.3l8.7,13.5l3.3-2.4L284.8,311.1L284.8,311.1z M128.1,313.5l-11.7,17.8l8.4,4.8
	l9.6-19.1L128.1,313.5L128.1,313.5z M271.9,313.5l-6.3,3.6l9.6,19.1l8.4-4.8L271.9,313.5L271.9,313.5z M140.8,326.2l-7.3,14.2
	l3.7,1.6l5.7-15L140.8,326.2L140.8,326.2z M259.1,326.2l-2,0.9l5.7,15l3.7-1.6L259.1,326.2L259.1,326.2z M154.8,331.7l-5.8,14.9
	l3.9,1.2l4.1-15.5L154.8,331.7L154.8,331.7z M245.2,331.7l-2.1,0.7l4.1,15.5l3.8-1.2L245.2,331.7L245.2,331.7z M196.4,333.7
	l-1.2,21.3h9.7l-1.2-21.3H196.4L196.4,333.7z M169.2,335.7l-4.2,15.4l3.9,0.8l2.4-15.8L169.2,335.7L169.2,335.7z M230.7,335.7
	l-2.2,0.5L231,352l4-0.8L230.7,335.7L230.7,335.7z M183.9,338.2l-2.6,15.8l4,0.4l0.8-16L183.9,338.2L183.9,338.2z M216,338.2
	l-2.2,0.2l0.8,16l4-0.4L216,338.2L216,338.2z"/>
<path d="M79,206c-3.4,0-5.8-0.4-7.3-1.2c-1.5-0.8-2.1-2.1-2-3.9v-0.4h4.8v0.4c0,1,0.4,1.7,1.1,2.2s1.9,0.8,3.4,0.8
	c2.5,0,4-0.4,4.7-1.3c0.6-0.8,0.9-2.5,0.9-5.2c-2.1,0.9-4.4,1.4-6.7,1.4c-3,0-5.1-0.4-6.4-1.3s-1.9-2.3-1.9-4.4v-0.7
	c0-2,0.8-3.5,2.4-4.4c1.6-1,4-1.5,7.3-1.5c3.9,0,6.6,0.5,8,1.6c1.4,1.1,2.1,3.2,2,6.3v2.3c0,3.7-0.7,6.2-2.1,7.4
	C85.7,205.4,83,206,79,206L79,206z M84.4,192.3c0-1.4-0.4-2.4-1.1-2.9c-0.7-0.5-2-0.8-4-0.8c-1.8,0-3.1,0.3-3.9,0.9
	c-0.8,0.6-1.2,1.5-1.2,2.9v0.7c0,1.3,0.4,2.2,1.2,2.7s2.1,0.8,3.8,0.8c1.6,0,2.9-0.3,3.8-0.9s1.3-1.5,1.3-2.7V192.3L84.4,192.3z"/>
<path d="M325,191.1c0-0.9-0.4-1.6-1.1-2c-0.7-0.4-1.9-0.6-3.6-0.6c-1.5,0-2.7,0.2-3.5,0.7s-1.2,1.2-1.1,2.1v0.6h-4.8v-0.6
	c-0.2-1.6,0.5-2.8,2.2-3.6c1.6-0.9,4.1-1.3,7.3-1.3c3.1,0,5.5,0.4,7.1,1.1c1.6,0.7,2.4,1.8,2.4,3.2v0.6c0,1.6-0.7,2.8-2.1,3.4
	c-0.8,0.4-2,0.7-3.5,0.8c1.6,0.2,2.8,0.4,3.6,0.8c1.3,0.6,2,1.9,2,3.7v1.1c0,1.6-0.8,2.9-2.5,3.7c-1.7,0.8-4.2,1.2-7.6,1.2
	c-3.1,0-5.5-0.4-7.1-1.3s-2.4-2.1-2.3-3.8v-0.6h4.8v0.6c0,1,0.3,1.8,1.1,2.3s1.9,0.7,3.5,0.7c1.9,0,3.3-0.3,4.2-0.8s1.3-1.3,1.3-2.4
	v-1.1c0-1-0.4-1.7-1.3-2.2c-0.9-0.5-2.1-0.8-3.7-0.8h-1.4v-2.2h0.5c2.1,0,3.6-0.2,4.5-0.7c0.9-0.4,1.4-1.1,1.4-2.1L325,191.1
	L325,191.1z"/>
<path d="M206.3,63.9c-3.3,0-5.8,0.4-7.3,1.2c-1.6,0.8-2.2,2-2.1,3.6v0.6h4.8v-0.6c-0.1-1,0.3-1.7,0.9-2.1s1.9-0.6,3.6-0.6
	c1.4,0,2.5,0.2,3.3,0.7s1.3,1.1,1.3,1.9c0,1.4-1.1,3-3.2,4.8c-2.1,1.8-5.9,4.3-11.2,7.5v2.3h19.5v-2.1h-14.8c5.3-3.3,9-5.7,11-7.5
	c2.3-1.9,3.4-3.7,3.4-5.2c0-1.5-0.8-2.6-2.4-3.4C211.8,64.3,209.4,63.9,206.3,63.9L206.3,63.9z M190.4,64.1c-1.1,0.6-2.2,1-3.1,1.4
	c-0.9,0.3-2.1,0.7-3.5,1.1v2.3c1.9-0.5,3.4-1,4.6-1.4l1-0.4v16.1h4.8V64.1H190.4L190.4,64.1z"/>
<path d="M200.3,304.2c3.4,0,5.8,0.4,7.3,1.2c1.5,0.8,2.1,2.1,2,3.9v0.4h-4.8v-0.4c0-1-0.4-1.7-1.1-2.2s-1.9-0.8-3.4-0.8
	c-2.2,0-3.7,0.5-4.4,1.5c-0.6,0.8-0.9,2.5-1,5c2.1-0.8,4.4-1.2,7-1.2c2.8,0,4.8,0.4,6.1,1.3c1.2,0.9,1.8,2.3,1.8,4.4v0.7
	c0,2-0.8,3.5-2.5,4.4s-4.1,1.5-7.4,1.5c-3.4,0-5.9-0.5-7.5-1.5c-1.6-1-2.4-2.6-2.4-4.7v-2.3c0-4.6,0.7-7.6,2-9
	C193.4,304.9,196.1,304.2,200.3,304.2L200.3,304.2z M194.9,317.9c0,1.4,0.4,2.4,1.1,2.9c0.7,0.5,2,0.8,3.9,0.8
	c1.8,0,3.1-0.3,3.9-0.9c0.8-0.6,1.2-1.5,1.2-2.9v-0.7c0-1.3-0.4-2.2-1.2-2.7c-0.8-0.6-2.1-0.8-3.8-0.8c-1.6,0-2.9,0.3-3.7,0.9
	c-0.9,0.6-1.3,1.5-1.3,2.7V317.9L194.9,317.9z"/>
<path d="M132.2,80.9c-1.1,0.6-2.2,1-3.1,1.4c-0.9,0.3-2.1,0.7-3.5,1.1v2.3c1.9-0.5,3.4-1,4.6-1.4l1-0.4V100h4.8V80.9L132.2,80.9
	L132.2,80.9z M148.4,80.9c-1.1,0.6-2.1,1-3.1,1.4c-0.9,0.3-2.1,0.7-3.5,1.1v2.3c1.9-0.5,3.4-1,4.6-1.4l1-0.4V100h4.8V80.9
	L148.4,80.9L148.4,80.9z"/>
<path d="M104.8,125c-3.3,0-5.8,0.4-7.4,1.2c-1.6,0.8-2.4,2.1-2.4,3.9v9c0,1.8,0.8,3.1,2.5,4c1.7,0.9,4.1,1.4,7.3,1.4
	c3.2,0,5.7-0.5,7.4-1.4c1.7-0.9,2.5-2.3,2.5-4.1v-9c0-1.8-0.8-3.1-2.3-3.9C110.8,125.4,108.3,125,104.8,125L104.8,125z M89.1,125.2
	c-1.1,0.6-2.1,1-3.1,1.4c-0.9,0.3-2.1,0.7-3.5,1.1v2.3c1.9-0.5,3.4-1,4.6-1.4l0.9-0.4v16.1H93v-19.1L89.1,125.2L89.1,125.2z
	 M104.8,127.1c1.8,0,3.1,0.2,3.9,0.7c0.8,0.5,1.2,1.2,1.2,2.3v9c0,1.1-0.4,1.9-1.3,2.5c-0.9,0.6-2.1,0.8-3.8,0.8
	c-1.7,0-3-0.3-3.8-0.8c-0.8-0.5-1.2-1.4-1.2-2.5v-9c0-1.1,0.4-1.9,1.1-2.4C101.7,127.3,103,127.1,104.8,127.1L104.8,127.1z"/>
<path d="M101.7,257.7c1.6,0.2,2.8,0.5,3.6,0.9c1.3,0.7,2,2.1,2,4.2v-0.4c0,1.7-0.9,3.1-2.6,4.1c-1.7,1-4.1,1.5-7.2,1.5
	c-3.3,0-5.8-0.5-7.4-1.4c-1.6-0.9-2.4-2.3-2.4-4.2v0.4c0-2,0.7-3.3,2.2-4.1c0.9-0.5,2.2-0.8,3.9-1c-1.4-0.2-2.5-0.5-3.4-0.9
	c-1.5-0.7-2.2-1.9-2.2-3.5v0.4c0-1.7,0.8-3,2.4-3.9c1.6-0.9,3.9-1.4,6.9-1.4c3.2,0,5.6,0.4,7.1,1.3c1.5,0.8,2.2,2.2,2.2,4v-0.4
	c0,1.6-0.7,2.8-2,3.5C104.1,257.2,103,257.5,101.7,257.7L101.7,257.7z M97.6,256.6c1.5,0,2.7-0.3,3.4-0.8c0.7-0.5,1.1-1.4,1.1-2.5
	v0.4c0-1.1-0.4-2-1.1-2.5s-1.8-0.8-3.4-0.8c-1.5,0-2.6,0.3-3.3,0.8c-0.7,0.5-1.1,1.3-1.1,2.4v-0.4c0,1.1,0.4,2,1.1,2.5
	C95,256.3,96.1,256.6,97.6,256.6L97.6,256.6z M97.5,258.7c-1.8,0-3.1,0.3-3.8,0.8c-0.8,0.6-1.1,1.5-1.1,2.8V262c0,1.5,0.3,2.5,1,3
	c0.7,0.5,2,0.8,3.9,0.8c1.8,0,3.1-0.3,3.8-0.9c0.8-0.6,1.1-1.6,1.1-2.9v0.4c0-1.4-0.4-2.4-1.1-2.9C100.7,259,99.4,258.7,97.5,258.7
	L97.5,258.7z"/>
<path d="M133,308.4l12.4-17h-14.3v-2.1h18.6v2.1l-11,17H133L133,308.4z"/>
<path d="M269.9,303c0,2.2-0.7,3.7-2.1,4.6s-3.8,1.3-7.3,1.3c-3.4,0-5.8-0.3-7.1-1c-1.3-0.6-2.1-1.8-2.3-3.5v-0.6h4.8v0.6
	c0.1,0.8,0.5,1.4,1.1,1.8c0.7,0.4,1.7,0.6,3,0.6c2,0,3.4-0.3,4.1-0.8c0.7-0.6,1.1-1.6,1.1-3.2v-1.3c0-1.2-0.3-2-1-2.5
	c-0.6-0.5-1.8-0.7-3.4-0.7c-1.6,0-2.7,0.2-3.5,0.6s-1.1,1.1-1.1,1.9h-4.9l0.3-11.3H269v2.2h-13l-0.2,6.1c0.8-0.4,1.5-0.7,2.1-0.9
	c1.2-0.5,2.7-0.7,4.5-0.7c2.8,0,4.8,0.4,5.9,1.2c1.1,0.8,1.7,2.3,1.7,4.4L269.9,303L269.9,303z"/>
<path d="M304.5,260.6h-13.4v-2l11.5-12.4h6.7v12.3h4.3v2.1h-4.3v4.7h-4.8L304.5,260.6L304.5,260.6z M304.5,258.5v-10l-9.1,10H304.5z
	"/>
<path d="M312.8,128.7c0,1.5-1.1,3.2-3.4,5.2c-2,1.7-5.7,4.2-11,7.5h14.8v2.1h-19.5v-2.3c5.4-3.2,9.1-5.7,11.2-7.6
	c2.1-1.8,3.2-3.4,3.2-4.8c0-0.8-0.4-1.4-1.3-1.9c-0.8-0.5-1.9-0.7-3.3-0.7c-1.8,0-3,0.2-3.7,0.6c-0.7,0.4-1,1.1-0.9,2.1v0.6H294
	v-0.6c-0.2-1.6,0.5-2.8,2.1-3.6c1.6-0.8,4-1.2,7.3-1.2c3.1,0,5.4,0.4,7,1.2C312,126.1,312.8,127.2,312.8,128.7L312.8,128.7z"/>
<path d="M261.1,99V82.9l-0.9,0.4c-1.2,0.5-2.8,0.9-4.6,1.4v-2.3c1.4-0.4,2.6-0.7,3.5-1.1c0.9-0.4,2-0.8,3.1-1.4h3.8V99L261.1,99
	L261.1,99z"/>
<g class="st5">
	<ellipse transform="matrix(0.9841 -0.1777 0.1777 0.9841 -31.7164 38.6804)" cx="200" cy="196.4" rx="7.7" ry="7.7"/>
</g>
<path d="M207.5,194.7c0.8,4.2-2,8.2-6.2,9c-4.2,0.8-8.2-2-9-6.2c-0.8-4.2,2-8.2,6.2-9C202.7,187.7,206.8,190.5,207.5,194.7z"/>
<radialGradient id="SVGID_3_" cx="-41.9739" cy="-1410.2863" r="52.319" gradientTransform="matrix(0.2051 -3.888499e-02 -2.377173e-02 -0.1254 176.4458 25.4918)" gradientUnits="userSpaceOnUse">
	<stop  offset="0" style="stop-color:#FFFFFF"/>
	<stop  offset="1" style="stop-color:#FFFFFF;stop-opacity:0"/>
</radialGradient>
<path class="st6" d="M206.5,195.1c0.7,3.6-1.8,7.1-5.4,7.8c-3.6,0.7-7.1-1.8-7.8-5.4s1.8-7.1,5.4-7.8S205.9,191.5,206.5,195.1z"/>
<radialGradient id="SVGID_4_" cx="-649.2646" cy="2828.8853" r="37.016" gradientTransform="matrix(-0.1405 4.405022e-02 2.654276e-02 8.466480e-02 32.1094 -20.2294)" gradientUnits="userSpaceOnUse">
	<stop  offset="0" style="stop-color:#FFFFFF"/>
	<stop  offset="1" style="stop-color:#FFFFFF;stop-opacity:0"/>
</radialGradient>
<path class="st7" d="M198.7,189.3c-2.5,0.4-4.4,2.1-5.3,4.3c1.3-1.8,3.3-3.2,5.8-3.6c1.6-0.3,3.3-0.1,4.7,0.4
	C202.4,189.4,200.6,189,198.7,189.3L198.7,189.3z"/>
<linearGradient id="SVGID_5_" gradientUnits="userSpaceOnUse" x1="357.36" y1="80.1824" x2="393.2901" y2="-24.1776" gradientTransform="matrix(0.5831 0 0 -0.6042 -19.5256 187.1373)">
	<stop  offset="0" style="stop-color:#FFFFFF"/>
	<stop  offset="1" style="stop-color:#FFFFFF;stop-opacity:0"/>
</linearGradient>
<path class="st8" d="M199.2,39.8c-71,0-131.5,48.8-150.7,116.3c-3.4,12-0.3,24.9,8.2,33.8s20.9,12.3,32.5,8.9
	c70-20.4,142-29.5,215.8-27c12.1,0.4,23.4-6,29.5-16.8c6.2-10.7,6.2-24.1,0.1-34.9C307.5,72.2,256.9,39.8,199.2,39.8L199.2,39.8z"/>
<linearGradient id="SVGID_6_" gradientUnits="userSpaceOnUse" x1="433.0249" y1="-244.0059" x2="335.7048" y2="86.6541" gradientTransform="matrix(0.5678 0 0 -0.6042 -10.241 181.4743)">
	<stop  offset="0" style="stop-color:#FFFFFF"/>
	<stop  offset="1" style="stop-color:#FFFFFF;stop-opacity:0"/>
</linearGradient>
<path class="st9" d="M282,188c-66.1,0.4-130.5,10.9-193.3,31.5c-8.4,2.8-15.3,9.3-18.9,17.8c-3.6,8.6-3.5,18.4,0.2,26.9
	c23.7,54.3,75.6,92,135.6,92c72.6,0,133.5-55,146.8-128.5c1.7-9.2-0.5-18.7-5.9-26.1c-5.4-7.4-13.6-11.9-22.4-12.5
	C309.9,188.3,295.9,187.9,282,188L282,188z"/>
</svg>
