<?xml version="1.0" encoding="utf-8"?>
<!-- Generator: Adobe Illustrator 21.1.0, SVG Export Plug-In . SVG Version: 6.00 Build 0)  -->
<svg version="1.1" id="Layer_1" xmlns="http://www.w3.org/2000/svg" xmlns:xlink="http://www.w3.org/1999/xlink" x="0px" y="0px"
	 viewBox="0 0 283.5 283.5" style="enable-background:new 0 0 283.5 283.5;" xml:space="preserve">
<style type="text/css">
	.st0{fill:#DEDEDE;}
	.st1{fill:url(#SVGID_1_);}
	.st2{fill:none;}
	.st3{fill:url(#SVGID_2_);}
	.st4{fill:url(#SVGID_3_);}
	.st5{fill:url(#SVGID_4_);}
	.st6{fill:url(#SVGID_5_);}
	.st7{opacity:0.5;fill:url(#SVGID_6_);}
	.st8{fill:url(#SVGID_7_);}
	.st9{fill:url(#SVGID_8_);}
	.st10{fill:url(#SVGID_9_);}
	.st11{fill:url(#SVGID_10_);}
	.st12{fill:url(#SVGID_11_);}
	.st13{fill:url(#SVGID_12_);}
	.st14{fill:url(#SVGID_13_);}
	.st15{fill:url(#SVGID_14_);}
	.st16{fill:url(#SVGID_15_);}
	.st17{fill:url(#SVGID_16_);}
	.st18{fill:url(#SVGID_17_);}
	.st19{fill:url(#SVGID_18_);}
	.st20{fill:url(#SVGID_19_);}
	.st21{fill:url(#SVGID_20_);}
	.st22{fill:url(#SVGID_21_);}
	.st23{fill:#3C3C3B;}
	.st24{fill:#4A4A4A;}
	.st25{opacity:0.7;}
	.st26{fill:url(#SVGID_22_);}
	.st27{fill:url(#SVGID_23_);}
	.st28{fill:url(#SVGID_24_);}
	.st29{fill:url(#SVGID_25_);}
	.st30{fill:url(#SVGID_26_);}
	.st31{fill:url(#SVGID_27_);}
	.st32{fill:url(#SVGID_28_);}
	.st33{fill:url(#SVGID_29_);}
	.st34{fill:url(#SVGID_30_);}
	.st35{fill:url(#SVGID_31_);}
	.st36{fill:url(#SVGID_32_);}
	.st37{fill:url(#SVGID_33_);}
	.st38{fill:url(#SVGID_34_);}
	.st39{fill:url(#SVGID_35_);}
	.st40{fill:url(#SVGID_36_);}
	.st41{fill:url(#SVGID_37_);}
	.st42{fill:url(#SVGID_38_);}
	.st43{fill:url(#SVGID_39_);}
	.st44{fill:url(#SVGID_40_);}
	.st45{fill:url(#SVGID_41_);}
	.st46{fill:url(#SVGID_42_);}
	.st47{fill:url(#SVGID_43_);}
	.st48{fill:url(#SVGID_44_);}
	.st49{fill:url(#SVGID_45_);}
	.st50{fill:url(#SVGID_46_);}
	.st51{fill:url(#SVGID_47_);}
	.st52{fill:url(#SVGID_48_);}
	.st53{fill:url(#SVGID_49_);}
	.st54{fill:url(#SVGID_50_);}
	.st55{fill:url(#SVGID_51_);}
	.st56{fill:url(#SVGID_52_);}
	.st57{fill:url(#SVGID_53_);}
	.st58{fill:url(#SVGID_54_);}
	.st59{fill:url(#SVGID_55_);}
	.st60{fill:url(#SVGID_56_);}
	.st61{fill:url(#SVGID_57_);}
	.st62{fill:url(#SVGID_58_);}
	.st63{fill:url(#SVGID_59_);}
	.st64{fill:url(#SVGID_60_);}
	.st65{fill:url(#SVGID_61_);}
	.st66{fill:url(#SVGID_62_);}
	.st67{fill:url(#SVGID_63_);}
	.st68{fill:url(#SVGID_64_);}
	.st69{fill:url(#SVGID_65_);}
	.st70{fill:url(#SVGID_66_);}
	.st71{fill:url(#SVGID_67_);}
	.st72{fill:url(#SVGID_68_);}
	.st73{fill:url(#SVGID_69_);}
	.st74{fill:url(#SVGID_70_);}
	.st75{fill:url(#SVGID_71_);}
	.st76{fill:url(#SVGID_72_);}
	.st77{fill:url(#SVGID_73_);}
	.st78{fill:url(#SVGID_74_);}
	.st79{fill:url(#SVGID_75_);}
	.st80{fill:url(#SVGID_76_);}
	.st81{fill:url(#SVGID_77_);}
	.st82{fill:url(#SVGID_78_);}
	.st83{fill:url(#SVGID_79_);}
	.st84{fill:url(#SVGID_80_);}
	.st85{fill:url(#SVGID_81_);}
	.st86{opacity:0.4;fill:url(#SVGID_82_);}
	.st87{fill:#242424;}
	.st88{fill:none;stroke:#616160;stroke-width:0.1;stroke-miterlimit:10;}
	.st89{fill:url(#SVGID_83_);}
	.st90{fill:#818080;}
</style>
<path class="st0" d="M141.9,60.7c-44.4,0-80.6,36.1-80.6,80.6s36.1,80.6,80.6,80.6c44.4,0,80.6-36.1,80.6-80.6
	S186.4,60.7,141.9,60.7z"/>
<radialGradient id="SVGID_1_" cx="141.9361" cy="141.2588" r="80.559" gradientUnits="userSpaceOnUse">
	<stop  offset="0" style="stop-color:#E0E0E0;stop-opacity:0"/>
	<stop  offset="0.3937" style="stop-color:#E0E0E0;stop-opacity:0"/>
	<stop  offset="0.5783" style="stop-color:#DEDEDE;stop-opacity:0.3229"/>
	<stop  offset="0.6958" style="stop-color:#D5D5D5;stop-opacity:0.5287"/>
	<stop  offset="0.7947" style="stop-color:#C6C6C6;stop-opacity:0.7017"/>
	<stop  offset="0.8827" style="stop-color:#B2B2B2;stop-opacity:0.8556"/>
	<stop  offset="0.9636" style="stop-color:#979797;stop-opacity:0.9972"/>
	<stop  offset="0.9652" style="stop-color:#969696"/>
	<stop  offset="1" style="stop-color:#3D3D3D"/>
</radialGradient>
<path class="st1" d="M141.9,60.7c-44.4,0-80.6,36.1-80.6,80.6c0,44.4,36.1,80.6,80.6,80.6c44.4,0,80.6-36.1,80.6-80.6
	C222.5,96.8,186.4,60.7,141.9,60.7z"/>
<path class="st2" d="M141.9,60.7c-44.4,0-80.6,36.1-80.6,80.6c0,44.4,36.1,80.6,80.6,80.6c44.4,0,80.6-36.1,80.6-80.6
	C222.5,96.8,186.4,60.7,141.9,60.7z"/>
<radialGradient id="SVGID_2_" cx="141.9362" cy="141.2592" r="83.2992" gradientUnits="userSpaceOnUse">
	<stop  offset="0.8988" style="stop-color:#1C1C1C"/>
	<stop  offset="1" style="stop-color:#999999"/>
</radialGradient>
<path class="st3" d="M141.9,58C96,58,58.6,95.3,58.6,141.3c0,45.9,37.4,83.3,83.3,83.3c45.9,0,83.3-37.4,83.3-83.3
	C225.2,95.3,187.9,58,141.9,58z M141.9,221.8c-44.4,0-80.6-36.1-80.6-80.6s36.1-80.6,80.6-80.6c44.4,0,80.6,36.1,80.6,80.6
	S186.4,221.8,141.9,221.8z"/>
<linearGradient id="SVGID_3_" gradientUnits="userSpaceOnUse" x1="141.9363" y1="229.511" x2="141.9363" y2="37.9846">
	<stop  offset="0" style="stop-color:#7A7A7A"/>
	<stop  offset="1" style="stop-color:#E0E0E0"/>
</linearGradient>
<path class="st4" d="M141.9,49.7c-50.5,0-91.5,41-91.5,91.5c0,50.5,41,91.5,91.5,91.5c50.5,0,91.5-41,91.5-91.5
	C233.5,90.7,192.5,49.7,141.9,49.7z M141.9,230c-49,0-88.8-39.8-88.8-88.8c0-49,39.8-88.8,88.8-88.8c49,0,88.8,39.8,88.8,88.8
	C230.7,190.2,190.9,230,141.9,230z"/>
<linearGradient id="SVGID_4_" gradientUnits="userSpaceOnUse" x1="84.0455" y1="83.3685" x2="221.5938" y2="220.9168">
	<stop  offset="0" style="stop-color:#BFBFBF"/>
	<stop  offset="1" style="stop-color:#969696"/>
</linearGradient>
<path class="st5" d="M141.9,52.5c-49,0-88.8,39.8-88.8,88.8c0,49,39.8,88.8,88.8,88.8c49,0,88.8-39.8,88.8-88.8
	C230.7,92.3,190.9,52.5,141.9,52.5z M141.9,224.6c-45.9,0-83.3-37.4-83.3-83.3C58.6,95.3,96,58,141.9,58c45.9,0,83.3,37.4,83.3,83.3
	C225.2,187.2,187.9,224.6,141.9,224.6z"/>
<g>
	<linearGradient id="SVGID_5_" gradientUnits="userSpaceOnUse" x1="141.9361" y1="52.2359" x2="141.9361" y2="230.2822">
		<stop  offset="0" style="stop-color:#E6E6E6"/>
		<stop  offset="0.2353" style="stop-color:#C9C9C9"/>
		<stop  offset="0.5513" style="stop-color:#A9A9A9"/>
		<stop  offset="0.8176" style="stop-color:#969696"/>
		<stop  offset="1" style="stop-color:#8F8F8F"/>
	</linearGradient>
	<path class="st6" d="M141.9,230.3c-49.1,0-89-39.9-89-89c0-49.1,39.9-89,89-89c49.1,0,89,39.9,89,89
		C231,190.3,191,230.3,141.9,230.3z M141.9,52.7c-48.8,0-88.5,39.7-88.5,88.5c0,48.8,39.7,88.5,88.5,88.5
		c48.8,0,88.5-39.7,88.5-88.5C230.5,92.4,190.8,52.7,141.9,52.7z"/>
</g>
<linearGradient id="SVGID_6_" gradientUnits="userSpaceOnUse" x1="141.9361" y1="221.8179" x2="141.9361" y2="60.6997">
	<stop  offset="0" style="stop-color:#FFFFFF;stop-opacity:0"/>
	<stop  offset="0.158" style="stop-color:#FBFBFB;stop-opacity:0.158"/>
	<stop  offset="0.3081" style="stop-color:#F0F0F0;stop-opacity:0.3081"/>
	<stop  offset="0.455" style="stop-color:#DDDDDD;stop-opacity:0.455"/>
	<stop  offset="0.6" style="stop-color:#C2C2C2;stop-opacity:0.6"/>
	<stop  offset="0.7435" style="stop-color:#9F9F9F;stop-opacity:0.7435"/>
	<stop  offset="0.8841" style="stop-color:#757575;stop-opacity:0.8841"/>
	<stop  offset="1" style="stop-color:#4D4D4D"/>
</linearGradient>
<path class="st7" d="M141.9,60.7c-44.4,0-80.6,36.1-80.6,80.6c0,44.4,36.1,80.6,80.6,80.6c44.4,0,80.6-36.1,80.6-80.6
	C222.5,96.8,186.4,60.7,141.9,60.7z"/>
<g>
	<g>
		<linearGradient id="SVGID_7_" gradientUnits="userSpaceOnUse" x1="137.1199" y1="48.2379" x2="137.1199" y2="219.9531">
			<stop  offset="0" style="stop-color:#3C3C3B"/>
			<stop  offset="0.9861" style="stop-color:#2B2B2B"/>
		</linearGradient>
		<path class="st8" d="M134.2,87h1.4c0.3,0,0.5-0.1,0.7-0.3c0.1-0.2,0.2-0.4,0.2-0.6v-9h-2.7v-0.8c0.7,0,1.4-0.1,2.2-0.3
			c0.4-0.1,0.7-0.3,1-0.4c0.3-0.2,0.4-0.3,0.5-0.4h0.9v10.9c0,0.3,0.1,0.5,0.2,0.6c0.1,0.2,0.4,0.3,0.7,0.3h1.4v0.8h-6.4V87z"/>
		<linearGradient id="SVGID_8_" gradientUnits="userSpaceOnUse" x1="145.9185" y1="48.2373" x2="145.9185" y2="219.9555">
			<stop  offset="0" style="stop-color:#3C3C3B"/>
			<stop  offset="0.9861" style="stop-color:#2B2B2B"/>
		</linearGradient>
		<path class="st9" d="M143.4,78.3c0,0,0,0,0.1,0c0.1,0,0.2,0,0.3,0c0.2,0,0.4,0.1,0.6,0.3c0.2,0.2,0.3,0.5,0.3,0.8
			c0,0.5-0.3,0.9-0.8,1.1c-0.2,0.1-0.4,0.1-0.5,0.1c-0.5,0-0.9-0.3-1.2-0.8c-0.2-0.3-0.3-0.7-0.3-1.1c0-0.5,0.1-1,0.4-1.4
			c0.2-0.5,0.6-0.9,1-1.2c0.6-0.5,1.5-0.7,2.5-0.7c1.4,0,2.4,0.4,3.1,1.2c0.6,0.6,0.8,1.4,0.8,2.3c0,1-0.3,1.9-1,2.7
			c-0.5,0.5-1.5,1.4-2.9,2.5c-1.4,1.1-2.3,1.9-2.6,2.5h4.2c0.5,0,0.9-0.3,1.2-0.8c0.1-0.2,0.2-0.4,0.3-0.8c0.1-0.3,0.1-0.6,0.1-0.7
			h0.6l-0.2,3.6h-7.7v-0.6c0-0.2,0.2-0.6,0.6-1.3c0.4-0.7,1.1-1.5,2.1-2.4c1.1-1,1.8-1.7,2.2-2.2c0.4-0.5,0.7-1,0.9-1.6
			c0.1-0.4,0.2-0.8,0.2-1.1c0-0.9-0.4-1.5-1.1-2c-0.4-0.2-0.8-0.3-1.3-0.3c-1.1,0-1.8,0.4-2.1,1.1c-0.1,0.3-0.2,0.5-0.2,0.6
			c0,0.1,0,0.2,0,0.2C143.3,78.3,143.4,78.3,143.4,78.3z"/>
	</g>
	<g>
		<linearGradient id="SVGID_9_" gradientUnits="userSpaceOnUse" x1="171.8794" y1="48.2381" x2="171.8794" y2="219.9537">
			<stop  offset="0" style="stop-color:#3C3C3B"/>
			<stop  offset="0.9861" style="stop-color:#2B2B2B"/>
		</linearGradient>
		<path class="st10" d="M168.9,95h1.4c0.3,0,0.5-0.1,0.7-0.3c0.1-0.2,0.2-0.4,0.2-0.6v-9h-2.7v-0.8c0.7,0,1.4-0.1,2.2-0.3
			c0.4-0.1,0.7-0.3,1-0.4c0.3-0.2,0.4-0.3,0.5-0.4h0.9v10.9c0,0.3,0.1,0.5,0.2,0.6c0.1,0.2,0.4,0.3,0.7,0.3h1.4v0.8h-6.4V95z"/>
	</g>
	<g>
		<linearGradient id="SVGID_10_" gradientUnits="userSpaceOnUse" x1="193.7529" y1="48.2373" x2="193.7529" y2="219.9557">
			<stop  offset="0" style="stop-color:#3C3C3B"/>
			<stop  offset="0.9861" style="stop-color:#2B2B2B"/>
		</linearGradient>
		<path class="st11" d="M191.2,108.2c0,0,0,0,0.1,0c0.1,0,0.2,0,0.3,0c0.2,0,0.5,0.1,0.6,0.3c0.2,0.2,0.3,0.5,0.3,0.8
			c0,0.5-0.3,0.9-0.8,1.1c-0.2,0.1-0.4,0.1-0.5,0.1c-0.5,0-0.9-0.3-1.2-0.8c-0.2-0.3-0.3-0.7-0.3-1.1c0-0.5,0.1-1,0.4-1.4
			c0.2-0.5,0.6-0.9,1-1.2c0.6-0.5,1.5-0.7,2.5-0.7c1.4,0,2.4,0.4,3.1,1.2c0.6,0.6,0.8,1.4,0.8,2.3c0,1-0.3,1.9-1,2.7
			c-0.5,0.5-1.5,1.4-2.9,2.5c-1.4,1.1-2.3,1.9-2.6,2.5h4.2c0.5,0,0.9-0.2,1.2-0.8c0.1-0.2,0.2-0.4,0.3-0.8c0.1-0.3,0.1-0.6,0.1-0.7
			h0.6l-0.2,3.6h-7.7V117c0-0.2,0.2-0.6,0.6-1.3c0.4-0.7,1.1-1.5,2.1-2.4c1.1-1,1.8-1.7,2.2-2.2c0.4-0.5,0.7-1,0.9-1.6
			c0.1-0.4,0.2-0.8,0.2-1.1c0-0.9-0.4-1.5-1.1-2c-0.4-0.2-0.8-0.3-1.3-0.3c-1.1,0-1.8,0.4-2.1,1.1c-0.1,0.3-0.2,0.5-0.2,0.6
			c0,0.1,0,0.2,0,0.2C191.2,108.1,191.2,108.2,191.2,108.2z"/>
	</g>
	<g>
		<linearGradient id="SVGID_11_" gradientUnits="userSpaceOnUse" x1="201.7593" y1="48.2372" x2="201.7593" y2="219.955">
			<stop  offset="0" style="stop-color:#3C3C3B"/>
			<stop  offset="0.9861" style="stop-color:#2B2B2B"/>
		</linearGradient>
		<path class="st12" d="M199.5,137c0.3,0,0.6,0.2,0.7,0.6c0,0.1,0.1,0.2,0.1,0.3c0,0.2-0.1,0.5-0.2,0.6c-0.2,0.2-0.4,0.3-0.7,0.3
			c-0.8,0-1.1-0.5-1.1-1.5c0.1-0.7,0.5-1.3,1.2-1.7c0.6-0.4,1.4-0.6,2.2-0.6c0.6,0,1.2,0.1,1.8,0.3c0.5,0.2,1,0.5,1.3,0.9
			c0.3,0.4,0.5,0.9,0.6,1.5c0,0.8-0.2,1.5-0.7,2c-0.5,0.5-1,0.8-1.8,0.9c1.9,0.3,2.9,1.4,2.9,3.2c0,1.1-0.4,2-1.1,2.6
			c-0.7,0.7-1.8,1-3,1c-1.2,0-2.1-0.3-2.8-0.8c-0.7-0.5-1.1-1.3-1.1-2.2c0-1,0.5-1.5,1.4-1.5c0.3,0,0.6,0.1,0.7,0.4
			c0.2,0.2,0.3,0.5,0.3,0.7c0,0.2-0.1,0.4-0.2,0.6c-0.1,0.3-0.4,0.4-0.9,0.4c0,0.1,0.1,0.2,0.1,0.3c0,0.1,0.1,0.2,0.2,0.3
			c0.1,0.1,0.3,0.2,0.5,0.4c0.4,0.2,0.9,0.3,1.5,0.3c0.8,0,1.5-0.2,2-0.6c0.5-0.4,0.8-1.1,0.8-1.9c0-0.8-0.2-1.4-0.7-1.9
			c-0.6-0.6-1.6-0.9-3.1-0.9v-0.8c1.4,0,2.4-0.2,2.8-0.7c0.4-0.4,0.6-0.9,0.6-1.6c0-0.5-0.1-0.9-0.4-1.3c-0.4-0.5-1-0.8-2-0.8
			c-0.5,0-0.9,0.1-1.2,0.2C199.8,136.5,199.6,136.7,199.5,137z"/>
	</g>
	<g>
		<linearGradient id="SVGID_12_" gradientUnits="userSpaceOnUse" x1="193.461" y1="48.2411" x2="193.461" y2="219.9538">
			<stop  offset="0" style="stop-color:#3C3C3B"/>
			<stop  offset="0.9861" style="stop-color:#2B2B2B"/>
		</linearGradient>
		<path class="st13" d="M193.6,176.5c0.2,0,0.4-0.1,0.5-0.2c0.1-0.1,0.1-0.3,0.1-0.6V174h-4.9v-0.8l5.8-8.2h1.1v8h1.7v1.1H196v1.6
			c0,0.3,0,0.5,0.1,0.6c0.1,0.2,0.2,0.3,0.5,0.3h1.1v0.8h-5.4v-0.8H193.6z M194.1,167.9l-3.6,5.1h3.6V167.9z"/>
	</g>
	<g>
		<linearGradient id="SVGID_13_" gradientUnits="userSpaceOnUse" x1="171.8784" y1="48.2311" x2="171.8784" y2="219.9564">
			<stop  offset="0" style="stop-color:#3C3C3B"/>
			<stop  offset="0.9861" style="stop-color:#2B2B2B"/>
		</linearGradient>
		<path class="st14" d="M175.8,195.9c-0.1,1.1-0.6,1.9-1.4,2.5c-0.8,0.6-1.7,0.9-2.9,0.9c-1.8,0-3-0.6-3.5-1.9
			c-0.1-0.3-0.2-0.6-0.2-1c0-0.4,0.1-0.7,0.3-1c0.2-0.3,0.5-0.4,0.8-0.5c0.8,0,1.2,0.3,1.2,1c0,0.1,0,0.2-0.1,0.4
			c-0.1,0.4-0.5,0.6-1,0.6c0.1,0.4,0.3,0.7,0.6,0.9c0.5,0.3,1,0.5,1.6,0.5c0.6,0,1.1-0.1,1.6-0.4c0.7-0.5,1.1-1.4,1.1-2.6
			c0-0.2,0-0.4,0-0.6c-0.2-1.8-1-2.7-2.4-2.7c-0.7,0-1.2,0.2-1.7,0.5s-0.7,0.5-0.8,0.7l-0.7-0.1c0-0.1,0.1-0.3,0.1-0.6
			c0.1-0.3,0.1-0.7,0.2-1.2c0.1-0.5,0.1-0.9,0.2-1.4c0.1-1.3,0.2-2.3,0.2-3h0c0,0,0.4,0,1.1,0.1c0.8,0.1,1.4,0.1,1.9,0.1
			c0.7,0,1.4,0,2.1-0.1c0.6-0.1,0.9-0.1,0.9-0.1h0c0,0.2-0.1,0.5-0.2,0.8c-0.1,0.3-0.5,0.6-0.9,0.7c-0.4,0.1-0.9,0.1-1.6,0.1
			c-0.5,0-1,0-1.6-0.1c-0.5,0-0.8-0.1-0.8-0.1c0,0-0.1,0.6-0.2,1.7c0,0.2-0.1,0.6-0.2,1.1c-0.1,0.5-0.1,0.8-0.1,0.8
			c0.1-0.1,0.3-0.3,0.7-0.5c0.4-0.2,0.9-0.3,1.6-0.3c0.8,0,1.6,0.2,2.2,0.5c0.6,0.3,1.1,0.8,1.4,1.4c0.3,0.6,0.5,1.3,0.5,2.1
			C175.9,195.4,175.8,195.7,175.8,195.9z"/>
	</g>
	<g>
		<linearGradient id="SVGID_14_" gradientUnits="userSpaceOnUse" x1="141.9991" y1="48.2422" x2="141.9991" y2="219.9534">
			<stop  offset="0" style="stop-color:#3C3C3B"/>
			<stop  offset="0.9861" style="stop-color:#2B2B2B"/>
		</linearGradient>
		<path class="st15" d="M143,195.7c-0.7,0-1.2,0.1-1.6,0.4c-0.4,0.3-0.7,0.7-1,1.3c-0.5,0.9-0.8,2.1-0.8,3.5
			c0.4-0.7,0.9-1.2,1.7-1.5c0.4-0.1,0.8-0.2,1.2-0.2c1.2,0,2.2,0.5,2.8,1.4c0.5,0.8,0.8,1.7,0.8,2.7c0,1.4-0.4,2.4-1.2,3.1
			c-0.7,0.6-1.6,0.9-2.7,0.9c-1.4,0-2.5-0.5-3.3-1.6c-0.7-1-1.1-2.5-1.1-4.5c0-0.5,0-0.8,0-1c0.2-2,0.9-3.6,2.1-4.6
			c0.8-0.6,1.7-0.9,2.7-0.9c0.9,0,1.7,0.3,2.3,0.8c0.4,0.4,0.6,0.8,0.6,1.3c0,0.4-0.2,0.8-0.6,1c-0.1,0.1-0.3,0.1-0.5,0.1
			c-0.3,0-0.5-0.1-0.7-0.2c-0.2-0.1-0.4-0.3-0.4-0.5c0-0.1-0.1-0.2-0.1-0.3c0-0.2,0-0.4,0.1-0.5c0.1-0.2,0.2-0.2,0.2-0.2
			c0-0.1-0.1-0.2-0.3-0.3C143.4,195.8,143.2,195.7,143,195.7z M139.9,203.5c0,0.8,0.2,1.4,0.6,1.9c0.4,0.5,1,0.8,1.8,0.8
			c0.7,0,1.2-0.3,1.5-0.9c0.3-0.6,0.5-1.2,0.5-2c0-0.8-0.2-1.5-0.5-2.1c-0.4-0.6-0.9-0.9-1.6-0.9c-0.8,0-1.4,0.3-1.8,0.9
			C140.1,201.9,139.9,202.6,139.9,203.5z"/>
	</g>
	<g>
		<linearGradient id="SVGID_15_" gradientUnits="userSpaceOnUse" x1="112.1191" y1="48.2408" x2="112.1191" y2="219.9548">
			<stop  offset="0" style="stop-color:#3C3C3B"/>
			<stop  offset="0.9861" style="stop-color:#2B2B2B"/>
		</linearGradient>
		<path class="st16" d="M109.8,188.5c-0.1,0.1-0.3,0.3-0.4,0.5c-0.1,0.2-0.2,0.4-0.2,0.4l-0.3,1.5h-0.8l0.5-4.2c0.4,0,0.9,0,1.6,0
			c0.7,0,1.3,0,1.8,0c0.7,0,1.5,0,2.3,0c0.8,0,1.4,0,1.8-0.1c0,0.6-0.3,1.3-0.8,2.3c-0.6,1.1-1.1,2.2-1.4,3
			c-0.3,0.9-0.6,1.9-0.8,3.1c-0.2,1.2-0.3,2.6-0.3,4h-2.1c0-0.4,0.1-1,0.2-2c0.1-1,0.4-2,0.8-3.1c0.3-1,0.7-1.9,1.2-2.7
			c0.4-0.8,0.8-1.5,1.2-2.1c0.3-0.5,0.6-0.9,0.7-1.1h-3.9C110.4,188.3,110,188.4,109.8,188.5z"/>
	</g>
	<g>
		<linearGradient id="SVGID_16_" gradientUnits="userSpaceOnUse" x1="90.2457" y1="48.2447" x2="90.2457" y2="219.9517">
			<stop  offset="0" style="stop-color:#3C3C3B"/>
			<stop  offset="0.9861" style="stop-color:#2B2B2B"/>
		</linearGradient>
		<path class="st17" d="M88.7,170.7c-0.6-0.2-1.1-0.5-1.6-1c-0.4-0.5-0.6-1.2-0.6-2.1c0.1-0.9,0.5-1.6,1.2-2
			c0.7-0.4,1.7-0.7,2.8-0.7c0.6,0,1.2,0.1,1.7,0.3c0.5,0.2,0.9,0.5,1.2,0.9c0.3,0.4,0.5,0.8,0.5,1.3c0,0.8-0.2,1.5-0.6,2
			c-0.4,0.5-0.9,0.8-1.6,0.9c0.5,0.1,1,0.4,1.7,0.9c0.7,0.5,1.1,1.3,1.1,2.4c0,1.2-0.4,2.1-1.1,2.8c-0.8,0.7-1.9,1-3.3,1
			c-1.3,0-2.3-0.3-3-0.9c-0.7-0.6-1.1-1.4-1.2-2.3c0-1,0.3-1.8,0.8-2.4C87.4,171.2,88,170.8,88.7,170.7z M87.7,174.2
			c0.2,1.3,1.1,2.1,2.7,2.2c0.8,0,1.4-0.2,1.9-0.7c0.5-0.4,0.7-1,0.7-1.7c0-0.6-0.3-1.1-0.8-1.5c-0.5-0.4-1.1-0.7-1.6-0.8
			c-0.6-0.2-0.9-0.3-1.1-0.3c-0.6,0.1-1,0.5-1.4,1C87.9,172.9,87.7,173.5,87.7,174.2z M92.7,167.5c-0.2-1.1-0.9-1.7-2.2-1.7
			c-0.8,0-1.4,0.2-1.8,0.5c-0.5,0.3-0.7,0.8-0.7,1.4c0,0.5,0.2,0.9,0.6,1.3c0.4,0.3,0.9,0.6,1.4,0.7c0.5,0.1,0.8,0.2,0.9,0.2
			c0.2,0,0.5-0.1,0.8-0.3c0.3-0.2,0.6-0.4,0.8-0.8C92.6,168.5,92.7,168,92.7,167.5z"/>
	</g>
	<g>
		<linearGradient id="SVGID_17_" gradientUnits="userSpaceOnUse" x1="82.2395" y1="48.245" x2="82.2395" y2="219.947">
			<stop  offset="0" style="stop-color:#3C3C3B"/>
			<stop  offset="0.9861" style="stop-color:#2B2B2B"/>
		</linearGradient>
		<path class="st18" d="M81.1,146.9c1.4,0,2.3-0.5,2.8-1.7c0.3-0.5,0.4-1.2,0.5-1.9c0.1-0.8,0.1-1.3,0.1-1.7c0,0,0,0.1-0.1,0.3
			c-0.1,0.2-0.1,0.3-0.2,0.5c-0.1,0.2-0.3,0.3-0.5,0.5c-0.2,0.2-0.5,0.3-0.8,0.4c-0.3,0.1-0.7,0.2-1.1,0.2c-0.6,0-1.2-0.1-1.7-0.4
			c-0.6-0.3-1-0.6-1.4-1.1c-0.5-0.7-0.7-1.5-0.7-2.4c0-1.2,0.4-2.2,1.2-3.1c0.7-0.8,1.7-1.2,2.9-1.2c0.6,0,1.2,0.1,1.7,0.4
			c0.5,0.2,1,0.6,1.3,1c0.8,1.1,1.3,2.6,1.3,4.5c0,0.3,0,0.7-0.1,1.2c-0.1,1-0.3,1.9-0.6,2.6c-0.3,0.8-0.8,1.4-1.4,1.9
			c-0.3,0.3-0.8,0.5-1.3,0.7c-0.5,0.2-1.1,0.3-1.7,0.3c-0.9,0-1.7-0.2-2.3-0.7c-0.5-0.4-0.7-0.8-0.7-1.3c0-0.4,0.2-0.7,0.5-1
			c0.2-0.1,0.4-0.2,0.6-0.2c0.2,0,0.5,0.1,0.7,0.2c0.2,0.1,0.3,0.3,0.4,0.6c0,0.2,0,0.4-0.1,0.6c0,0.1-0.1,0.3-0.1,0.4
			c0,0.1-0.1,0.1-0.1,0.1c0.1,0.1,0.2,0.1,0.3,0.2C80.8,146.8,81,146.9,81.1,146.9z M84.3,139.1c0-0.8-0.3-1.5-0.6-2
			c-0.4-0.5-0.9-0.8-1.7-0.8c-0.7,0-1.3,0.3-1.7,0.9c-0.4,0.6-0.6,1.2-0.6,2c0,0.8,0.2,1.5,0.6,2.1c0.4,0.6,1,0.9,1.7,0.9
			c0.7,0,1.2-0.3,1.6-0.8C84.1,140.8,84.3,140,84.3,139.1z"/>
	</g>
	<g>
		<linearGradient id="SVGID_18_" gradientUnits="userSpaceOnUse" x1="85.3142" y1="48.2383" x2="85.3142" y2="219.9539">
			<stop  offset="0" style="stop-color:#3C3C3B"/>
			<stop  offset="0.9861" style="stop-color:#2B2B2B"/>
		</linearGradient>
		<path class="st19" d="M82.4,116.8h1.4c0.3,0,0.5-0.1,0.7-0.3c0.1-0.2,0.2-0.4,0.2-0.6v-9h-2.7v-0.8c0.7,0,1.4-0.1,2.2-0.3
			c0.4-0.1,0.7-0.3,1-0.4c0.3-0.2,0.4-0.3,0.5-0.4h0.9v10.9c0,0.3,0.1,0.5,0.2,0.6c0.1,0.2,0.4,0.3,0.7,0.3h1.4v0.8h-6.4V116.8z"/>
		<linearGradient id="SVGID_19_" gradientUnits="userSpaceOnUse" x1="94.127" y1="48.2369" x2="94.127" y2="219.9562">
			<stop  offset="0" style="stop-color:#3C3C3B"/>
			<stop  offset="0.9861" style="stop-color:#2B2B2B"/>
		</linearGradient>
		<path class="st20" d="M94.1,105.2c0.8,0,1.5,0.2,2.1,0.5c0.6,0.4,1,0.8,1.4,1.4c0.3,0.6,0.6,1.3,0.7,2c0.2,0.7,0.2,1.5,0.2,2.3
			c0,1.1-0.1,2.1-0.4,3c-0.3,0.9-0.8,1.7-1.4,2.3c-0.7,0.6-1.5,0.9-2.6,0.9c-1.1,0-1.9-0.3-2.6-0.9c-0.7-0.6-1.1-1.4-1.4-2.3
			c-0.3-0.9-0.4-2-0.4-3c0-1.7,0.4-3.2,1.1-4.4C91.4,105.9,92.6,105.3,94.1,105.2z M91.5,111.5c0,3.5,0.9,5.3,2.6,5.3
			c1.7,0,2.6-1.8,2.6-5.3c0-3.6-0.9-5.3-2.6-5.3C92.4,106.2,91.5,108,91.5,111.5z"/>
	</g>
	<g>
		<linearGradient id="SVGID_20_" gradientUnits="userSpaceOnUse" x1="107.8462" y1="48.2381" x2="107.8462" y2="219.9537">
			<stop  offset="0" style="stop-color:#3C3C3B"/>
			<stop  offset="0.9861" style="stop-color:#2B2B2B"/>
		</linearGradient>
		<path class="st21" d="M104.9,95h1.4c0.3,0,0.5-0.1,0.7-0.3c0.1-0.2,0.2-0.4,0.2-0.6v-9h-2.7v-0.8c0.7,0,1.4-0.1,2.2-0.3
			c0.4-0.1,0.7-0.3,1-0.4c0.3-0.2,0.4-0.3,0.5-0.4h0.9v10.9c0,0.3,0.1,0.5,0.2,0.6c0.1,0.2,0.4,0.3,0.7,0.3h1.4v0.8h-6.4V95z"/>
		<linearGradient id="SVGID_21_" gradientUnits="userSpaceOnUse" x1="116.3926" y1="48.2381" x2="116.3926" y2="219.9537">
			<stop  offset="0" style="stop-color:#3C3C3B"/>
			<stop  offset="0.9861" style="stop-color:#2B2B2B"/>
		</linearGradient>
		<path class="st22" d="M113.4,95h1.4c0.3,0,0.5-0.1,0.7-0.3c0.1-0.2,0.2-0.4,0.2-0.6v-9H113v-0.8c0.7,0,1.4-0.1,2.2-0.3
			c0.4-0.1,0.7-0.3,1-0.4c0.3-0.2,0.4-0.3,0.5-0.4h0.9v10.9c0,0.3,0.1,0.5,0.2,0.6c0.1,0.2,0.4,0.3,0.7,0.3h1.4v0.8h-6.4V95z"/>
	</g>
</g>
<circle class="st23" cx="141.9" cy="141.3" r="3.4"/>
<path class="st24" d="M143.5,138.2c0,0-0.2,0-0.4-0.1c-0.1,0-0.3-0.1-0.5-0.1c-0.2,0-0.4,0-0.6-0.1c-0.2,0-0.5,0-0.8,0.1
	c-0.3,0.1-0.5,0.2-0.8,0.3c-0.3,0.1-0.5,0.3-0.7,0.5c-0.2,0.2-0.4,0.4-0.6,0.7c-0.1,0.1-0.2,0.3-0.2,0.4l-0.1,0.4
	c-0.1,0.3-0.1,0.6-0.1,0.9c0,0.3,0,0.6,0.1,0.9c0.1,0.2,0.2,0.5,0.3,0.7c0.1,0.2,0.3,0.4,0.4,0.5c0.1,0.2,0.3,0.3,0.3,0.4
	c0.2,0.2,0.3,0.3,0.3,0.3s-0.1-0.1-0.3-0.3c-0.1-0.1-0.3-0.2-0.4-0.3c-0.1-0.2-0.3-0.3-0.4-0.5c-0.1-0.2-0.2-0.5-0.3-0.7
	c-0.1-0.3-0.1-0.6-0.2-0.9c0-0.3,0-0.6,0.1-1l0.1-0.5c0.1-0.2,0.1-0.3,0.2-0.4c0.1-0.3,0.4-0.5,0.6-0.8c0.3-0.2,0.5-0.4,0.8-0.5
	c0.3-0.2,0.6-0.2,0.8-0.3c0.3-0.1,0.5-0.1,0.8-0.1c0.3,0,0.5,0.1,0.7,0.1c0.2,0,0.3,0.1,0.5,0.2
	C143.3,138.2,143.5,138.2,143.5,138.2z"/>
<g class="st25">
	<linearGradient id="SVGID_22_" gradientUnits="userSpaceOnUse" x1="141.2808" y1="66.5703" x2="142.5933" y2="66.5703">
		<stop  offset="0" style="stop-color:#3C3C3B"/>
		<stop  offset="0.9861" style="stop-color:#2B2B2B"/>
	</linearGradient>
	<path class="st26" d="M142.6,67.8c0,0.1-0.1,0.2-0.3,0.2h-0.7c-0.2,0-0.3-0.1-0.3-0.2v-2.4c0-0.1,0.1-0.2,0.3-0.2h0.7
		c0.2,0,0.3,0.1,0.3,0.2V67.8z"/>
	<linearGradient id="SVGID_23_" gradientUnits="userSpaceOnUse" x1="178.0887" y1="76.5773" x2="180.4745" y2="76.5773">
		<stop  offset="0" style="stop-color:#3C3C3B"/>
		<stop  offset="0.9861" style="stop-color:#2B2B2B"/>
	</linearGradient>
	<path class="st27" d="M179.3,77.9c-0.1,0.1-0.2,0.1-0.4,0l-0.6-0.3c-0.2-0.1-0.2-0.3-0.2-0.4l1.2-2.1c0.1-0.1,0.2-0.1,0.4,0
		l0.6,0.3c0.2,0.1,0.2,0.3,0.2,0.4L179.3,77.9z"/>
	<linearGradient id="SVGID_24_" gradientUnits="userSpaceOnUse" x1="205.1499" y1="103.916" x2="208.0895" y2="103.916">
		<stop  offset="0" style="stop-color:#3C3C3B"/>
		<stop  offset="0.9861" style="stop-color:#2B2B2B"/>
	</linearGradient>
	<path class="st28" d="M205.9,105.1c-0.1,0.1-0.3,0-0.4-0.2l-0.3-0.6c-0.1-0.2-0.1-0.3,0-0.4l2.1-1.2c0.1-0.1,0.3,0,0.4,0.2l0.3,0.6
		c0.1,0.2,0.1,0.3,0,0.4L205.9,105.1z"/>
	<linearGradient id="SVGID_25_" gradientUnits="userSpaceOnUse" x1="215.1846" y1="141.2617" x2="218.0654" y2="141.2617">
		<stop  offset="0" style="stop-color:#3C3C3B"/>
		<stop  offset="0.9861" style="stop-color:#2B2B2B"/>
	</linearGradient>
	<path class="st29" d="M215.4,141.9c-0.1,0-0.2-0.1-0.2-0.3l0-0.7c0-0.2,0.1-0.3,0.2-0.3h2.4c0.1,0,0.2,0.1,0.2,0.3v0.7
		c0,0.2-0.1,0.3-0.2,0.3L215.4,141.9z"/>
	<linearGradient id="SVGID_26_" gradientUnits="userSpaceOnUse" x1="205.149" y1="178.6056" x2="208.088" y2="178.6056">
		<stop  offset="0" style="stop-color:#3C3C3B"/>
		<stop  offset="0.9861" style="stop-color:#2B2B2B"/>
	</linearGradient>
	<path class="st30" d="M205.3,178.6c-0.1-0.1-0.1-0.2-0.1-0.4l0.3-0.6c0.1-0.2,0.3-0.2,0.4-0.2l2.1,1.2c0.1,0.1,0.1,0.2,0,0.4
		l-0.3,0.6c-0.1,0.2-0.3,0.2-0.4,0.2L205.3,178.6z"/>
	<linearGradient id="SVGID_27_" gradientUnits="userSpaceOnUse" x1="178.0867" y1="205.9439" x2="180.4724" y2="205.9439">
		<stop  offset="0" style="stop-color:#3C3C3B"/>
		<stop  offset="0.9861" style="stop-color:#2B2B2B"/>
	</linearGradient>
	<path class="st31" d="M178.1,205.2c-0.1-0.1,0-0.3,0.2-0.4l0.6-0.3c0.2-0.1,0.3-0.1,0.4,0l1.2,2.1c0.1,0.1,0,0.3-0.2,0.4l-0.6,0.3
		c-0.2,0.1-0.3,0.1-0.4-0.1L178.1,205.2z"/>
	<linearGradient id="SVGID_28_" gradientUnits="userSpaceOnUse" x1="141.2774" y1="215.9492" x2="142.5903" y2="215.9492">
		<stop  offset="0" style="stop-color:#3C3C3B"/>
		<stop  offset="0.9861" style="stop-color:#2B2B2B"/>
	</linearGradient>
	<path class="st32" d="M141.3,214.8c0-0.1,0.1-0.2,0.3-0.2l0.7,0c0.2,0,0.3,0.1,0.3,0.2v2.4c0,0.1-0.1,0.2-0.3,0.2h-0.7
		c-0.2,0-0.3-0.1-0.3-0.2L141.3,214.8z"/>
	<linearGradient id="SVGID_29_" gradientUnits="userSpaceOnUse" x1="103.3966" y1="205.9429" x2="105.7824" y2="205.9429">
		<stop  offset="0" style="stop-color:#3C3C3B"/>
		<stop  offset="0.9861" style="stop-color:#2B2B2B"/>
	</linearGradient>
	<path class="st33" d="M104.6,204.6c0.1-0.1,0.2-0.1,0.4-0.1l0.6,0.3c0.2,0.1,0.2,0.3,0.2,0.4l-1.2,2.1c-0.1,0.1-0.2,0.1-0.4,0
		l-0.6-0.3c-0.2-0.1-0.2-0.3-0.2-0.4L104.6,204.6z"/>
	<linearGradient id="SVGID_30_" gradientUnits="userSpaceOnUse" x1="75.7817" y1="178.6039" x2="78.7211" y2="178.6039">
		<stop  offset="0" style="stop-color:#3C3C3B"/>
		<stop  offset="0.9861" style="stop-color:#2B2B2B"/>
	</linearGradient>
	<path class="st34" d="M78,177.4c0.1-0.1,0.3,0,0.4,0.2l0.3,0.6c0.1,0.2,0.1,0.3,0,0.4l-2.1,1.2c-0.1,0.1-0.3,0-0.4-0.2l-0.3-0.6
		c-0.1-0.2-0.1-0.3,0.1-0.4L78,177.4z"/>
	<linearGradient id="SVGID_31_" gradientUnits="userSpaceOnUse" x1="65.8057" y1="141.2583" x2="68.6856" y2="141.2583">
		<stop  offset="0" style="stop-color:#3C3C3B"/>
		<stop  offset="0.9861" style="stop-color:#2B2B2B"/>
	</linearGradient>
	<path class="st35" d="M68.4,140.6c0.1,0,0.2,0.1,0.2,0.3l0,0.7c0,0.2-0.1,0.3-0.2,0.3H66c-0.1,0-0.2-0.1-0.2-0.3l0-0.7
		c0-0.2,0.1-0.3,0.2-0.3L68.4,140.6z"/>
	<linearGradient id="SVGID_32_" gradientUnits="userSpaceOnUse" x1="75.783" y1="103.9139" x2="78.7218" y2="103.9139">
		<stop  offset="0" style="stop-color:#3C3C3B"/>
		<stop  offset="0.9861" style="stop-color:#2B2B2B"/>
	</linearGradient>
	<path class="st36" d="M78.6,103.9c0.1,0.1,0.1,0.2,0.1,0.4l-0.3,0.6c-0.1,0.2-0.3,0.2-0.4,0.2l-2.1-1.2c-0.1-0.1-0.1-0.2-0.1-0.4
		l0.3-0.6c0.1-0.2,0.3-0.2,0.4-0.2L78.6,103.9z"/>
	<linearGradient id="SVGID_33_" gradientUnits="userSpaceOnUse" x1="103.3984" y1="76.5756" x2="105.7834" y2="76.5756">
		<stop  offset="0" style="stop-color:#3C3C3B"/>
		<stop  offset="0.9861" style="stop-color:#2B2B2B"/>
	</linearGradient>
	<path class="st37" d="M105.8,77.3c0.1,0.1,0,0.3-0.2,0.4L105,78c-0.2,0.1-0.3,0.1-0.4,0l-1.2-2.1c-0.1-0.1,0-0.3,0.2-0.4l0.6-0.3
		c0.2-0.1,0.3-0.1,0.4,0.1L105.8,77.3z"/>
	
		<linearGradient id="SVGID_34_" gradientUnits="userSpaceOnUse" x1="142.3538" y1="66.0394" x2="142.3538" y2="67.0778" gradientTransform="matrix(0.9945 -0.1045 0.1045 0.9945 -14.3937 15.6628)">
		<stop  offset="0" style="stop-color:#3C3C3B"/>
		<stop  offset="0.9861" style="stop-color:#2B2B2B"/>
	</linearGradient>
	<circle class="st38" cx="134.1" cy="67" r="0.5"/>
	
		<linearGradient id="SVGID_35_" gradientUnits="userSpaceOnUse" x1="142.354" y1="66.4368" x2="142.354" y2="67.4757" gradientTransform="matrix(0.9781 -0.2079 0.2079 0.9781 -26.7456 32.3075)">
		<stop  offset="0" style="stop-color:#3C3C3B"/>
		<stop  offset="0.9861" style="stop-color:#2B2B2B"/>
	</linearGradient>
	<circle class="st39" cx="126.4" cy="68.2" r="0.5"/>
	
		<linearGradient id="SVGID_36_" gradientUnits="userSpaceOnUse" x1="141.8847" y1="65.5167" x2="141.8847" y2="66.5552" gradientTransform="matrix(0.9511 -0.309 0.309 0.9511 -36.4924 51.2606)">
		<stop  offset="0" style="stop-color:#3C3C3B"/>
		<stop  offset="0.9861" style="stop-color:#2B2B2B"/>
	</linearGradient>
	<circle class="st40" cx="118.9" cy="70.2" r="0.5"/>
	
		<linearGradient id="SVGID_37_" gradientUnits="userSpaceOnUse" x1="142.5246" y1="66.3873" x2="142.5246" y2="67.426" gradientTransform="matrix(0.9135 -0.4067 0.4067 0.9135 -45.8464 69.8713)">
		<stop  offset="0" style="stop-color:#3C3C3B"/>
		<stop  offset="0.9861" style="stop-color:#2B2B2B"/>
	</linearGradient>
	<circle class="st41" cx="111.6" cy="73" r="0.5"/>
	
		<linearGradient id="SVGID_38_" gradientUnits="userSpaceOnUse" x1="141.8052" y1="66.2729" x2="141.8052" y2="67.3122" gradientTransform="matrix(0.809 -0.5878 0.5878 0.809 -55.9432 110.1499)">
		<stop  offset="0" style="stop-color:#3C3C3B"/>
		<stop  offset="0.9861" style="stop-color:#2B2B2B"/>
	</linearGradient>
	<circle class="st42" cx="98" cy="80.8" r="0.5"/>
	
		<linearGradient id="SVGID_39_" gradientUnits="userSpaceOnUse" x1="142.3237" y1="66.5492" x2="142.3237" y2="67.5882" gradientTransform="matrix(0.7431 -0.6691 0.6691 0.7431 -58.6739 131.1412)">
		<stop  offset="0" style="stop-color:#3C3C3B"/>
		<stop  offset="0.9861" style="stop-color:#2B2B2B"/>
	</linearGradient>
	<circle class="st43" cx="92" cy="85.8" r="0.5"/>
	
		<linearGradient id="SVGID_40_" gradientUnits="userSpaceOnUse" x1="142.4405" y1="66.4311" x2="142.4405" y2="67.4707" gradientTransform="matrix(0.6691 -0.7431 0.7431 0.6691 -58.6243 152.33)">
		<stop  offset="0" style="stop-color:#3C3C3B"/>
		<stop  offset="0.9861" style="stop-color:#2B2B2B"/>
	</linearGradient>
	<circle class="st44" cx="86.4" cy="91.3" r="0.5"/>
	
		<linearGradient id="SVGID_41_" gradientUnits="userSpaceOnUse" x1="142.1612" y1="65.9155" x2="142.1612" y2="66.9553" gradientTransform="matrix(0.5878 -0.809 0.809 0.5878 -55.7948 173.3121)">
		<stop  offset="0" style="stop-color:#3C3C3B"/>
		<stop  offset="0.9861" style="stop-color:#2B2B2B"/>
	</linearGradient>
	<circle class="st45" cx="81.5" cy="97.4" r="0.5"/>
	
		<linearGradient id="SVGID_42_" gradientUnits="userSpaceOnUse" x1="142.2827" y1="66.6346" x2="142.2827" y2="67.675" gradientTransform="matrix(0.4067 -0.9135 0.9135 0.4067 -45.5066 213.5394)">
		<stop  offset="0" style="stop-color:#3C3C3B"/>
		<stop  offset="0.9861" style="stop-color:#2B2B2B"/>
	</linearGradient>
	<circle class="st46" cx="73.7" cy="110.9" r="0.5"/>
	
		<linearGradient id="SVGID_43_" gradientUnits="userSpaceOnUse" x1="141.4059" y1="66.0043" x2="141.4059" y2="67.0439" gradientTransform="matrix(0.309 -0.9511 0.9511 0.309 -36.0617 232.1098)">
		<stop  offset="0" style="stop-color:#3C3C3B"/>
		<stop  offset="0.9861" style="stop-color:#2B2B2B"/>
	</linearGradient>
	<circle class="st47" cx="70.9" cy="118.2" r="0.5"/>
	
		<linearGradient id="SVGID_44_" gradientUnits="userSpaceOnUse" x1="142.3316" y1="66.4656" x2="142.3316" y2="67.5055" gradientTransform="matrix(0.2079 -0.9781 0.9781 0.2079 -26.2289 251.014)">
		<stop  offset="0" style="stop-color:#3C3C3B"/>
		<stop  offset="0.9861" style="stop-color:#2B2B2B"/>
	</linearGradient>
	<circle class="st48" cx="68.9" cy="125.7" r="0.5"/>
	
		<linearGradient id="SVGID_45_" gradientUnits="userSpaceOnUse" x1="141.9342" y1="66.4695" x2="141.9342" y2="67.5092" gradientTransform="matrix(0.1045 -0.9945 0.9945 0.1045 -13.7964 267.6009)">
		<stop  offset="0" style="stop-color:#3C3C3B"/>
		<stop  offset="0.9861" style="stop-color:#2B2B2B"/>
	</linearGradient>
	<circle class="st49" cx="67.7" cy="133.4" r="0.5"/>
	
		<linearGradient id="SVGID_46_" gradientUnits="userSpaceOnUse" x1="142.3562" y1="66.0436" x2="142.3562" y2="67.0838" gradientTransform="matrix(-0.1045 -0.9945 0.9945 -0.1045 16.3344 297.5909)">
		<stop  offset="0" style="stop-color:#3C3C3B"/>
		<stop  offset="0.9861" style="stop-color:#2B2B2B"/>
	</linearGradient>
	<circle class="st50" cx="67.7" cy="149.1" r="0.5"/>
	
		<linearGradient id="SVGID_47_" gradientUnits="userSpaceOnUse" x1="142.3568" y1="66.4412" x2="142.3568" y2="67.4811" gradientTransform="matrix(-0.2079 -0.9781 0.9781 -0.2079 32.9792 309.9434)">
		<stop  offset="0" style="stop-color:#3C3C3B"/>
		<stop  offset="0.9861" style="stop-color:#2B2B2B"/>
	</linearGradient>
	<circle class="st51" cx="68.9" cy="156.8" r="0.5"/>
	
		<linearGradient id="SVGID_48_" gradientUnits="userSpaceOnUse" x1="141.8877" y1="65.5209" x2="141.8877" y2="66.561" gradientTransform="matrix(-0.309 -0.9511 0.9511 -0.309 51.9324 319.6902)">
		<stop  offset="0" style="stop-color:#3C3C3B"/>
		<stop  offset="0.9861" style="stop-color:#2B2B2B"/>
	</linearGradient>
	<circle class="st52" cx="70.9" cy="164.3" r="0.5"/>
	
		<linearGradient id="SVGID_49_" gradientUnits="userSpaceOnUse" x1="142.5249" y1="66.3912" x2="142.5249" y2="67.4307" gradientTransform="matrix(-0.4067 -0.9135 0.9135 -0.4067 70.5437 329.0427)">
		<stop  offset="0" style="stop-color:#3C3C3B"/>
		<stop  offset="0.9861" style="stop-color:#2B2B2B"/>
	</linearGradient>
	<circle class="st53" cx="73.7" cy="171.6" r="0.5"/>
	
		<linearGradient id="SVGID_50_" gradientUnits="userSpaceOnUse" x1="141.8059" y1="66.2776" x2="141.8059" y2="67.3165" gradientTransform="matrix(-0.5878 -0.809 0.809 -0.5878 110.8222 339.1393)">
		<stop  offset="0" style="stop-color:#3C3C3B"/>
		<stop  offset="0.9861" style="stop-color:#2B2B2B"/>
	</linearGradient>
	<circle class="st54" cx="81.5" cy="185.2" r="0.5"/>
	
		<linearGradient id="SVGID_51_" gradientUnits="userSpaceOnUse" x1="142.3246" y1="66.5513" x2="142.3246" y2="67.5915" gradientTransform="matrix(-0.6691 -0.7431 0.7431 -0.6691 131.8155 341.8701)">
		<stop  offset="0" style="stop-color:#3C3C3B"/>
		<stop  offset="0.9861" style="stop-color:#2B2B2B"/>
	</linearGradient>
	<circle class="st55" cx="86.4" cy="191.2" r="0.5"/>
	
		<linearGradient id="SVGID_52_" gradientUnits="userSpaceOnUse" x1="142.4409" y1="66.4329" x2="142.4409" y2="67.4724" gradientTransform="matrix(-0.7431 -0.6691 0.6691 -0.7431 153.0048 341.8194)">
		<stop  offset="0" style="stop-color:#3C3C3B"/>
		<stop  offset="0.9861" style="stop-color:#2B2B2B"/>
	</linearGradient>
	<circle class="st56" cx="92" cy="196.8" r="0.5"/>
	
		<linearGradient id="SVGID_53_" gradientUnits="userSpaceOnUse" x1="142.1614" y1="65.9179" x2="142.1614" y2="66.9577" gradientTransform="matrix(-0.809 -0.5878 0.5878 -0.809 173.9859 338.9908)">
		<stop  offset="0" style="stop-color:#3C3C3B"/>
		<stop  offset="0.9861" style="stop-color:#2B2B2B"/>
	</linearGradient>
	<path class="st57" d="M97.6,201.4c0.2-0.2,0.5-0.3,0.7-0.1c0.2,0.2,0.3,0.5,0.1,0.7c-0.2,0.2-0.5,0.3-0.7,0.1
		C97.5,201.9,97.4,201.6,97.6,201.4z"/>
	
		<linearGradient id="SVGID_54_" gradientUnits="userSpaceOnUse" x1="142.284" y1="66.6368" x2="142.284" y2="67.6777" gradientTransform="matrix(-0.9135 -0.4067 0.4067 -0.9135 214.2142 328.7029)">
		<stop  offset="0" style="stop-color:#3C3C3B"/>
		<stop  offset="0.9861" style="stop-color:#2B2B2B"/>
	</linearGradient>
	<path class="st58" d="M111.1,209.3c0.1-0.3,0.4-0.4,0.7-0.3c0.3,0.1,0.4,0.4,0.3,0.7c-0.1,0.3-0.4,0.4-0.7,0.3
		C111.1,209.8,111,209.5,111.1,209.3z"/>
	
		<linearGradient id="SVGID_55_" gradientUnits="userSpaceOnUse" x1="141.4072" y1="66.004" x2="141.4072" y2="67.0449" gradientTransform="matrix(-0.9511 -0.309 0.309 -0.9511 232.7846 319.2566)">
		<stop  offset="0" style="stop-color:#3C3C3B"/>
		<stop  offset="0.9861" style="stop-color:#2B2B2B"/>
	</linearGradient>
	<path class="st59" d="M118.4,212.1c0.1-0.3,0.4-0.4,0.7-0.3c0.3,0.1,0.4,0.4,0.3,0.7c-0.1,0.3-0.4,0.4-0.7,0.3
		C118.4,212.7,118.3,212.4,118.4,212.1z"/>
	
		<linearGradient id="SVGID_56_" gradientUnits="userSpaceOnUse" x1="142.332" y1="66.4647" x2="142.332" y2="67.5054" gradientTransform="matrix(-0.9781 -0.2079 0.2079 -0.9781 251.6888 309.4238)">
		<stop  offset="0" style="stop-color:#3C3C3B"/>
		<stop  offset="0.9861" style="stop-color:#2B2B2B"/>
	</linearGradient>
	<path class="st60" d="M125.9,214.2c0.1-0.3,0.3-0.5,0.6-0.4c0.3,0.1,0.5,0.3,0.4,0.6c-0.1,0.3-0.3,0.5-0.6,0.4
		C126,214.8,125.8,214.5,125.9,214.2z"/>
	
		<linearGradient id="SVGID_57_" gradientUnits="userSpaceOnUse" x1="141.9355" y1="66.4692" x2="141.9355" y2="67.5108" gradientTransform="matrix(-0.9945 -0.1045 0.1045 -0.9945 268.2757 296.9914)">
		<stop  offset="0" style="stop-color:#3C3C3B"/>
		<stop  offset="0.9861" style="stop-color:#2B2B2B"/>
	</linearGradient>
	<path class="st61" d="M133.6,215.5c0-0.3,0.3-0.5,0.6-0.5c0.3,0,0.5,0.3,0.5,0.6c0,0.3-0.3,0.5-0.6,0.5
		C133.8,216,133.6,215.8,133.6,215.5z"/>
	
		<linearGradient id="SVGID_58_" gradientUnits="userSpaceOnUse" x1="142.3584" y1="66.0435" x2="142.3584" y2="67.0847" gradientTransform="matrix(-0.9945 0.1045 -0.1045 -0.9945 298.2668 266.8607)">
		<stop  offset="0" style="stop-color:#3C3C3B"/>
		<stop  offset="0.9861" style="stop-color:#2B2B2B"/>
	</linearGradient>
	<path class="st62" d="M149.2,215.6c0-0.3,0.2-0.5,0.5-0.6c0.3,0,0.5,0.2,0.6,0.5c0,0.3-0.2,0.5-0.5,0.6
		C149.5,216.1,149.2,215.9,149.2,215.6z"/>
	
		<linearGradient id="SVGID_59_" gradientUnits="userSpaceOnUse" x1="142.3585" y1="66.4428" x2="142.3585" y2="67.4849" gradientTransform="matrix(-0.9781 0.2079 -0.2079 -0.9781 310.6191 250.2181)">
		<stop  offset="0" style="stop-color:#3C3C3B"/>
		<stop  offset="0.9861" style="stop-color:#2B2B2B"/>
	</linearGradient>
	<path class="st63" d="M157,214.4c-0.1-0.3,0.1-0.6,0.4-0.6c0.3-0.1,0.6,0.1,0.6,0.4c0.1,0.3-0.1,0.6-0.4,0.6
		C157.3,214.9,157,214.7,157,214.4z"/>
	
		<linearGradient id="SVGID_60_" gradientUnits="userSpaceOnUse" x1="141.8916" y1="65.5216" x2="141.8916" y2="66.5629" gradientTransform="matrix(-0.9511 0.309 -0.309 -0.9511 320.3679 231.2622)">
		<stop  offset="0" style="stop-color:#3C3C3B"/>
		<stop  offset="0.9861" style="stop-color:#2B2B2B"/>
	</linearGradient>
	<path class="st64" d="M164.5,212.5c-0.1-0.3,0.1-0.6,0.3-0.7c0.3-0.1,0.6,0.1,0.7,0.3c0.1,0.3-0.1,0.6-0.3,0.7
		C164.9,212.9,164.6,212.7,164.5,212.5z"/>
	
		<linearGradient id="SVGID_61_" gradientUnits="userSpaceOnUse" x1="142.5305" y1="66.3941" x2="142.5305" y2="67.4354" gradientTransform="matrix(-0.9135 0.4067 -0.4067 -0.9135 329.7224 212.6517)">
		<stop  offset="0" style="stop-color:#3C3C3B"/>
		<stop  offset="0.9861" style="stop-color:#2B2B2B"/>
	</linearGradient>
	<path class="st65" d="M171.8,209.7c-0.1-0.3,0-0.6,0.3-0.7c0.3-0.1,0.6,0,0.7,0.3c0.1,0.3,0,0.6-0.3,0.7
		C172.3,210.1,171.9,210,171.8,209.7z"/>
	
		<linearGradient id="SVGID_62_" gradientUnits="userSpaceOnUse" x1="141.8109" y1="66.2783" x2="141.8109" y2="67.3188" gradientTransform="matrix(-0.809 0.5878 -0.5878 -0.809 339.819 172.3707)">
		<stop  offset="0" style="stop-color:#3C3C3B"/>
		<stop  offset="0.9861" style="stop-color:#2B2B2B"/>
	</linearGradient>
	<path class="st66" d="M185.4,202c-0.2-0.2-0.1-0.6,0.1-0.7c0.2-0.2,0.6-0.1,0.7,0.1c0.2,0.2,0.1,0.6-0.1,0.7
		C185.9,202.3,185.6,202.2,185.4,202z"/>
	
		<linearGradient id="SVGID_63_" gradientUnits="userSpaceOnUse" x1="142.3295" y1="66.5531" x2="142.3295" y2="67.595" gradientTransform="matrix(-0.7431 0.6691 -0.6691 -0.7431 342.5499 151.3779)">
		<stop  offset="0" style="stop-color:#3C3C3B"/>
		<stop  offset="0.9861" style="stop-color:#2B2B2B"/>
	</linearGradient>
	<path class="st67" d="M191.5,197.1c-0.2-0.2-0.2-0.5,0-0.7c0.2-0.2,0.5-0.2,0.7,0c0.2,0.2,0.2,0.5,0,0.7
		C192,197.3,191.7,197.3,191.5,197.1z"/>
	
		<linearGradient id="SVGID_64_" gradientUnits="userSpaceOnUse" x1="142.4461" y1="66.4335" x2="142.4461" y2="67.4743" gradientTransform="matrix(-0.6691 0.7431 -0.7431 -0.6691 342.4991 130.1876)">
		<stop  offset="0" style="stop-color:#3C3C3B"/>
		<stop  offset="0.9861" style="stop-color:#2B2B2B"/>
	</linearGradient>
	<path class="st68" d="M197.1,191.6c-0.2-0.2-0.2-0.5,0-0.7c0.2-0.2,0.5-0.2,0.7,0c0.2,0.2,0.2,0.5,0,0.7
		C197.6,191.8,197.3,191.8,197.1,191.6z"/>
	
		<linearGradient id="SVGID_65_" gradientUnits="userSpaceOnUse" x1="142.1654" y1="65.9178" x2="142.1654" y2="66.9586" gradientTransform="matrix(-0.5878 0.809 -0.809 -0.5878 339.6686 109.205)">
		<stop  offset="0" style="stop-color:#3C3C3B"/>
		<stop  offset="0.9861" style="stop-color:#2B2B2B"/>
	</linearGradient>
	<path class="st69" d="M202.1,185.6c-0.2-0.2-0.3-0.5-0.1-0.7c0.2-0.2,0.5-0.3,0.7-0.1c0.2,0.2,0.3,0.5,0.1,0.7
		C202.6,185.7,202.3,185.8,202.1,185.6z"/>
	
		<linearGradient id="SVGID_66_" gradientUnits="userSpaceOnUse" x1="142.288" y1="66.6372" x2="142.288" y2="67.6808" gradientTransform="matrix(-0.4067 0.9135 -0.9135 -0.4067 329.3806 68.9773)">
		<stop  offset="0" style="stop-color:#3C3C3B"/>
		<stop  offset="0.9861" style="stop-color:#2B2B2B"/>
	</linearGradient>
	<path class="st70" d="M210,172.1c-0.3-0.1-0.4-0.4-0.3-0.7c0.1-0.3,0.4-0.4,0.7-0.3c0.3,0.1,0.4,0.4,0.3,0.7
		C210.5,172.1,210.2,172.2,210,172.1z"/>
	
		<linearGradient id="SVGID_67_" gradientUnits="userSpaceOnUse" x1="141.4106" y1="66.0047" x2="141.4106" y2="67.0481" gradientTransform="matrix(-0.309 0.9511 -0.9511 -0.309 319.9343 50.4066)">
		<stop  offset="0" style="stop-color:#3C3C3B"/>
		<stop  offset="0.9861" style="stop-color:#2B2B2B"/>
	</linearGradient>
	<path class="st71" d="M212.8,164.8c-0.3-0.1-0.4-0.4-0.3-0.7c0.1-0.3,0.4-0.4,0.7-0.3c0.3,0.1,0.4,0.4,0.3,0.7
		C213.4,164.8,213.1,164.9,212.8,164.8z"/>
	
		<linearGradient id="SVGID_68_" gradientUnits="userSpaceOnUse" x1="142.3356" y1="66.465" x2="142.3356" y2="67.5099" gradientTransform="matrix(-0.2079 0.9781 -0.9781 -0.2079 310.1016 31.5027)">
		<stop  offset="0" style="stop-color:#3C3C3B"/>
		<stop  offset="0.9861" style="stop-color:#2B2B2B"/>
	</linearGradient>
	<path class="st72" d="M214.9,157.3c-0.3-0.1-0.5-0.3-0.4-0.6c0.1-0.3,0.3-0.5,0.6-0.4c0.3,0.1,0.5,0.3,0.4,0.6
		C215.4,157.2,215.2,157.4,214.9,157.3z"/>
	
		<linearGradient id="SVGID_69_" gradientUnits="userSpaceOnUse" x1="141.9384" y1="66.4699" x2="141.9384" y2="67.5143" gradientTransform="matrix(-0.1045 0.9945 -0.9945 -0.1045 297.6691 14.9158)">
		<stop  offset="0" style="stop-color:#3C3C3B"/>
		<stop  offset="0.9861" style="stop-color:#2B2B2B"/>
	</linearGradient>
	<path class="st73" d="M216.2,149.6c-0.3,0-0.5-0.3-0.5-0.6c0-0.3,0.3-0.5,0.6-0.5c0.3,0,0.5,0.3,0.5,0.6
		C216.7,149.4,216.4,149.6,216.2,149.6z"/>
	
		<linearGradient id="SVGID_70_" gradientUnits="userSpaceOnUse" x1="142.3613" y1="66.0437" x2="142.3613" y2="67.0889" gradientTransform="matrix(0.1045 0.9945 -0.9945 0.1045 267.5374 -15.0754)">
		<stop  offset="0" style="stop-color:#3C3C3B"/>
		<stop  offset="0.9861" style="stop-color:#2B2B2B"/>
	</linearGradient>
	<path class="st74" d="M216.3,134c-0.3,0-0.5-0.2-0.6-0.5c0-0.3,0.2-0.5,0.5-0.6c0.3,0,0.5,0.2,0.6,0.5
		C216.8,133.7,216.6,133.9,216.3,134z"/>
	
		<linearGradient id="SVGID_71_" gradientUnits="userSpaceOnUse" x1="142.3609" y1="66.4405" x2="142.3609" y2="67.4864" gradientTransform="matrix(0.2079 0.9781 -0.9781 0.2079 250.8919 -27.4277)">
		<stop  offset="0" style="stop-color:#3C3C3B"/>
		<stop  offset="0.9861" style="stop-color:#2B2B2B"/>
	</linearGradient>
	<path class="st75" d="M215.1,126.2c-0.3,0.1-0.5-0.1-0.6-0.4c-0.1-0.3,0.1-0.6,0.4-0.6c0.3-0.1,0.6,0.1,0.6,0.4
		C215.6,125.9,215.4,126.2,215.1,126.2z"/>
	
		<linearGradient id="SVGID_72_" gradientUnits="userSpaceOnUse" x1="141.8918" y1="65.5201" x2="141.8918" y2="66.5652" gradientTransform="matrix(0.309 0.9511 -0.9511 0.309 231.9379 -37.175)">
		<stop  offset="0" style="stop-color:#3C3C3B"/>
		<stop  offset="0.9861" style="stop-color:#2B2B2B"/>
	</linearGradient>
	<path class="st76" d="M213.1,118.7c-0.3,0.1-0.6-0.1-0.7-0.3c-0.1-0.3,0.1-0.6,0.3-0.7c0.3-0.1,0.6,0.1,0.7,0.3
		C213.6,118.3,213.4,118.6,213.1,118.7z"/>
	
		<linearGradient id="SVGID_73_" gradientUnits="userSpaceOnUse" x1="142.5316" y1="66.3915" x2="142.5316" y2="67.4373" gradientTransform="matrix(0.4067 0.9135 -0.9135 0.4067 213.3265 -46.5295)">
		<stop  offset="0" style="stop-color:#3C3C3B"/>
		<stop  offset="0.9861" style="stop-color:#2B2B2B"/>
	</linearGradient>
	<path class="st77" d="M210.4,111.4c-0.3,0.1-0.6,0-0.7-0.3c-0.1-0.3,0-0.6,0.3-0.7c0.3-0.1,0.6,0,0.7,0.3
		C210.8,110.9,210.6,111.2,210.4,111.4z"/>
	
		<linearGradient id="SVGID_74_" gradientUnits="userSpaceOnUse" x1="141.8114" y1="66.278" x2="141.8114" y2="67.3221" gradientTransform="matrix(0.5878 0.809 -0.809 0.5878 173.0465 -56.6263)">
		<stop  offset="0" style="stop-color:#3C3C3B"/>
		<stop  offset="0.9861" style="stop-color:#2B2B2B"/>
	</linearGradient>
	<path class="st78" d="M202.7,97.8c-0.2,0.2-0.5,0.1-0.7-0.1c-0.2-0.2-0.1-0.6,0.1-0.7c0.2-0.2,0.6-0.1,0.7,0.1
		C203,97.3,202.9,97.6,202.7,97.8z"/>
	
		<linearGradient id="SVGID_75_" gradientUnits="userSpaceOnUse" x1="142.3297" y1="66.5527" x2="142.3297" y2="67.5974" gradientTransform="matrix(0.6691 0.7431 -0.7431 0.6691 152.0537 -59.357)">
		<stop  offset="0" style="stop-color:#3C3C3B"/>
		<stop  offset="0.9861" style="stop-color:#2B2B2B"/>
	</linearGradient>
	<path class="st79" d="M197.8,91.7c-0.2,0.2-0.5,0.2-0.7,0c-0.2-0.2-0.2-0.5,0-0.7c0.2-0.2,0.5-0.2,0.7,0
		C198,91.2,198,91.5,197.8,91.7z"/>
	
		<linearGradient id="SVGID_76_" gradientUnits="userSpaceOnUse" x1="142.4473" y1="66.4333" x2="142.4473" y2="67.4794" gradientTransform="matrix(0.7431 0.6691 -0.6691 0.7431 130.8629 -59.3072)">
		<stop  offset="0" style="stop-color:#3C3C3B"/>
		<stop  offset="0.9861" style="stop-color:#2B2B2B"/>
	</linearGradient>
	<path class="st80" d="M192.3,86.1c-0.2,0.2-0.5,0.2-0.7,0c-0.2-0.2-0.2-0.5,0-0.7c0.2-0.2,0.5-0.2,0.7,0
		C192.5,85.6,192.5,85.9,192.3,86.1z"/>
	
		<linearGradient id="SVGID_77_" gradientUnits="userSpaceOnUse" x1="142.1668" y1="65.9192" x2="142.1668" y2="66.9641" gradientTransform="matrix(0.809 0.5878 -0.5878 0.809 109.8808 -56.4776)">
		<stop  offset="0" style="stop-color:#3C3C3B"/>
		<stop  offset="0.9861" style="stop-color:#2B2B2B"/>
	</linearGradient>
	<path class="st81" d="M186.3,81.1c-0.2,0.2-0.5,0.3-0.7,0.1c-0.2-0.2-0.3-0.5-0.1-0.7c0.2-0.2,0.5-0.3,0.7-0.1
		C186.4,80.6,186.4,80.9,186.3,81.1z"/>
	
		<linearGradient id="SVGID_78_" gradientUnits="userSpaceOnUse" x1="142.2892" y1="66.6383" x2="142.2892" y2="67.6838" gradientTransform="matrix(0.9135 0.4067 -0.4067 0.9135 69.6521 -46.1889)">
		<stop  offset="0" style="stop-color:#3C3C3B"/>
		<stop  offset="0.9861" style="stop-color:#2B2B2B"/>
	</linearGradient>
	<path class="st82" d="M172.8,73.2c-0.1,0.3-0.4,0.4-0.7,0.3c-0.3-0.1-0.4-0.4-0.3-0.7c0.1-0.3,0.4-0.4,0.7-0.3
		C172.8,72.7,172.9,73,172.8,73.2z"/>
	
		<linearGradient id="SVGID_79_" gradientUnits="userSpaceOnUse" x1="141.4126" y1="66.007" x2="141.4126" y2="67.052" gradientTransform="matrix(0.9511 0.309 -0.309 0.9511 51.0806 -36.7434)">
		<stop  offset="0" style="stop-color:#3C3C3B"/>
		<stop  offset="0.9861" style="stop-color:#2B2B2B"/>
	</linearGradient>
	<path class="st83" d="M165.5,70.4c-0.1,0.3-0.4,0.4-0.6,0.3c-0.3-0.1-0.4-0.4-0.3-0.7c0.1-0.3,0.4-0.4,0.7-0.3
		C165.5,69.8,165.6,70.1,165.5,70.4z"/>
	
		<linearGradient id="SVGID_80_" gradientUnits="userSpaceOnUse" x1="142.3373" y1="66.4675" x2="142.3373" y2="67.5127" gradientTransform="matrix(0.9781 0.2079 -0.2079 0.9781 32.176 -26.9099)">
		<stop  offset="0" style="stop-color:#3C3C3B"/>
		<stop  offset="0.9861" style="stop-color:#2B2B2B"/>
	</linearGradient>
	<path class="st84" d="M158,68.3c-0.1,0.3-0.3,0.5-0.6,0.4c-0.3-0.1-0.5-0.3-0.4-0.6c0.1-0.3,0.3-0.5,0.6-0.4
		C157.9,67.8,158,68,158,68.3z"/>
	
		<linearGradient id="SVGID_81_" gradientUnits="userSpaceOnUse" x1="141.94" y1="66.4717" x2="141.94" y2="67.516" gradientTransform="matrix(0.9945 0.1045 -0.1045 0.9945 15.5891 -14.4768)">
		<stop  offset="0" style="stop-color:#3C3C3B"/>
		<stop  offset="0.9861" style="stop-color:#2B2B2B"/>
	</linearGradient>
	<path class="st85" d="M150.3,67c0,0.3-0.3,0.5-0.6,0.5c-0.3,0-0.5-0.3-0.5-0.6c0-0.3,0.3-0.5,0.6-0.5
		C150.1,66.5,150.3,66.7,150.3,67z"/>
</g>
<linearGradient id="SVGID_82_" gradientUnits="userSpaceOnUse" x1="138.4879" y1="218.3654" x2="145.58" y2="59.774">
	<stop  offset="0" style="stop-color:#FFFFFF;stop-opacity:0"/>
	<stop  offset="0.4948" style="stop-color:#FFFFFF;stop-opacity:0.5"/>
	<stop  offset="1" style="stop-color:#FFFFFF"/>
</linearGradient>
<path class="st86" d="M141.9,60.7c-44.4,0-80.6,36.1-80.6,80.6c0,44.4,36.1,80.6,80.6,80.6c44.4,0,80.6-36.1,80.6-80.6
	C222.5,96.8,186.4,60.7,141.9,60.7z"/>
<path class="st87" d="M143.8,144c0,0,0.1-0.1,0.3-0.3c0.1-0.1,0.2-0.2,0.3-0.4c0.1-0.2,0.2-0.3,0.3-0.5c0.1-0.2,0.2-0.3,0.2-0.5
	c0.1-0.2,0.1-0.3,0.1-0.5c0.1-0.3,0.1-0.5,0.1-0.5s0,0.2,0,0.5c0,0.1,0,0.3-0.1,0.5c-0.1,0.2-0.1,0.4-0.2,0.5
	c-0.1,0.2-0.2,0.3-0.4,0.5c-0.1,0.2-0.2,0.3-0.4,0.4C144,143.9,143.8,144,143.8,144z"/>
<circle class="st88" cx="141.9" cy="141.3" r="2"/>
<radialGradient id="SVGID_83_" cx="141.9361" cy="141.2588" r="1.9661" gradientUnits="userSpaceOnUse">
	<stop  offset="0" style="stop-color:#525252"/>
	<stop  offset="0.5359" style="stop-color:#3F3F3F"/>
	<stop  offset="1" style="stop-color:#2B2B2B"/>
</radialGradient>
<circle class="st89" cx="141.9" cy="141.3" r="2"/>
<g>
	<path class="st90" d="M141.9,221.9c-44.5,0-80.6-36.2-80.6-80.6c0-44.5,36.2-80.6,80.6-80.6c44.5,0,80.6,36.2,80.6,80.6
		C222.6,185.7,186.4,221.9,141.9,221.9z M141.9,60.8c-44.4,0-80.5,36.1-80.5,80.5c0,44.4,36.1,80.5,80.5,80.5
		c44.4,0,80.5-36.1,80.5-80.5C222.4,96.9,186.3,60.8,141.9,60.8z"/>
</g>
</svg>
