<?xml version="1.0" encoding="UTF-8" standalone="no"?>
<!-- Created with Inkscape (http://www.inkscape.org/) -->

<svg
   xmlns:dc="http://purl.org/dc/elements/1.1/"
   xmlns:cc="http://creativecommons.org/ns#"
   xmlns:rdf="http://www.w3.org/1999/02/22-rdf-syntax-ns#"
   xmlns:svg="http://www.w3.org/2000/svg"
   xmlns="http://www.w3.org/2000/svg"
   xmlns:sodipodi="http://sodipodi.sourceforge.net/DTD/sodipodi-0.dtd"
   xmlns:inkscape="http://www.inkscape.org/namespaces/inkscape"
   width="62.999676mm"
   height="88.00058mm"
   viewBox="0 0 62.999676 88.00058"
   version="1.1"
   id="svg3123"
   inkscape:version="0.92.5 (2060ec1f9f, 2020-04-08)"
   sodipodi:docname="Ace.svg">
  <defs
     id="defs3117" />
  <sodipodi:namedview
     id="base"
     pagecolor="#ffffff"
     bordercolor="#666666"
     borderopacity="1.0"
     inkscape:pageopacity="0.0"
     inkscape:pageshadow="2"
     inkscape:zoom="0.35"
     inkscape:cx="100.48306"
     inkscape:cy="309.15745"
     inkscape:document-units="mm"
     inkscape:current-layer="layer1"
     showgrid="false"
     inkscape:window-width="3840"
     inkscape:window-height="2115"
     inkscape:window-x="3827"
     inkscape:window-y="-13"
     inkscape:window-maximized="1" />
  <metadata
     id="metadata3120">
    <rdf:RDF>
      <cc:Work
         rdf:about="">
        <dc:format>image/svg+xml</dc:format>
        <dc:type
           rdf:resource="http://purl.org/dc/dcmitype/StillImage" />
        <dc:title></dc:title>
      </cc:Work>
    </rdf:RDF>
  </metadata>
  <g
     inkscape:label="Layer 1"
     inkscape:groupmode="layer"
     id="layer1"
     transform="translate(100.2915,-142.63066)">
    <g
       style="display:inline;opacity:1;enable-background:new"
       id="g1572"
       transform="matrix(0.28376002,0,0,0.28374486,-231.5575,450.99311)">
      <rect
         ry="10.542974"
         rx="10.530333"
         style="display:inline;fill:#ffffff;fill-opacity:1;stroke:#000000;stroke-width:1.8678174;stroke-miterlimit:4;stroke-dasharray:none;stroke-opacity:1"
         id="rect6355-6-85-9-3-2"
         width="220.14963"
         height="308.272"
         x="463.52902"
         y="-1085.8257" />
      <path
         d="m 574.59442,-956.14887 c -9.77004,0.21187 -14.15099,11.19706 -6.91523,19.72769 1.04943,1.24429 1.15769,1.95834 -0.76423,0.76315 -4.87164,-3.25332 -14.2128,-1.11461 -14.69114,8.83135 -0.59088,12.25484 16.55534,15.78579 19.77473,2.7547 0.16997,-1.37488 1.28883,-1.3435 1.01906,0.60807 -0.29354,5.29685 -1.94994,10.24757 -4.2267,15.07533 3.83734,0 8.12586,0 11.61492,0 -2.27665,-4.82776 -3.93317,-9.77848 -4.22672,-15.07533 -0.26976,-1.95157 0.84911,-1.98295 1.01907,-0.60807 3.2194,13.03109 20.36562,9.50014 19.77474,-2.7547 -0.47823,-9.94596 -9.8195,-12.08467 -14.69114,-8.83135 -1.92191,1.19519 -1.81365,0.48114 -0.76422,-0.76315 7.23576,-8.53063 2.8548,-19.51581 -6.91516,-19.72769 0,-6e-5 0,5e-5 -0.01,0 z"
         id="path147-0-8-1-6-1-1-0-9-1-8"
         inkscape:connector-curvature="0"
         sodipodi:nodetypes="ccccccccccccccc"
         style="display:inline;opacity:1;stroke-width:0.99887252" />
      <path
         d="m 668.53376,-827.27909 c 3.908,-0.0882 5.66045,-4.66545 2.76614,-8.21987 -0.41983,-0.51845 -0.46312,-0.81599 0.30569,-0.31798 1.94868,1.35555 5.68512,0.46442 5.87648,-3.67974 0.23633,-5.10617 -6.6222,-6.5774 -7.90994,-1.14779 -0.0677,0.57288 -0.51555,0.5598 -0.40759,-0.25335 0.11743,-2.20703 0.77996,-4.26982 1.69066,-6.28139 -1.54855,0 -3.09721,0 -4.64576,0 0.9107,2.01157 1.57323,4.07436 1.69065,6.28139 0.10797,0.81315 -0.33962,0.82623 -0.40759,0.25335 -1.28773,-5.42961 -8.14627,-3.95838 -7.90994,1.14779 0.19136,4.14416 3.92781,5.03529 5.87649,3.67974 0.7688,-0.49801 0.72552,-0.20047 0.30569,0.31798 -2.89431,3.55442 -1.14186,8.13157 2.76603,8.21987 0.001,2e-5 0,-2e-5 0,0 z"
         id="path147-6-9-8-7-0-5-0-8-3"
         inkscape:connector-curvature="0"
         sodipodi:nodetypes="ccccccccccccccc"
         style="display:inline;opacity:1;stroke-width:0.99887252" />
      <path
         d="m 470.62166,-1041.2056 v -2.8076 h 2.67906 l 5.70722,-30.0275 h 3.24835 l 6.28685,30.0275 h 2.16341 v 2.8076 h -7.37178 v -2.8076 h 1.98948 l -0.79448,-4.6016 h -7.43697 l -0.57447,4.6016 h 1.98937 v 2.8076 z m 13.27354,-10.6871 -3.23303,-16.0717 -3.02825,16.0717 z m 0,0"
         id="path41-6-3-5-1"
         inkscape:connector-curvature="0"
         style="display:inline;opacity:1;stroke-width:0.99887252" />
      <path
         d="m 658.48842,-824.15923 v 2.8076 h 2.67907 l 5.70721,30.02761 h 3.24836 l 6.28685,-30.02761 h 2.16342 v -2.8076 h -7.37179 v 2.8076 h 1.98947 l -0.79447,4.60158 h -7.43698 l -0.57446,-4.60158 h 1.98937 v -2.8076 z m 13.27355,10.6871 -3.23304,16.07172 -3.02824,-16.07172 z m 0,0"
         id="path41-6-4-0-2-8"
         inkscape:connector-curvature="0"
         style="display:inline;opacity:1;stroke-width:0.99887252" />
      <path
         d="m 480.6641,-1038.0857 c -3.908,0.088 -5.66044,4.6654 -2.76614,8.2199 0.41982,0.5184 0.46311,0.8159 -0.30569,0.3179 -1.94867,-1.3556 -5.68512,-0.4644 -5.87647,3.6798 -0.23633,5.1061 6.62218,6.5774 7.90993,1.1478 0.0677,-0.5729 0.51555,-0.5598 0.40758,0.2533 -0.11741,2.207 -0.77994,4.2698 -1.69065,6.2814 1.54856,0 3.0972,0 4.64576,0 -0.91071,-2.0116 -1.57324,-4.0744 -1.69065,-6.2814 -0.10796,-0.8131 0.33962,-0.8262 0.40758,-0.2533 1.28775,5.4296 8.14627,3.9583 7.90994,-1.1478 -0.19135,-4.1442 -3.9278,-5.0354 -5.87648,-3.6798 -0.7688,0.498 -0.72551,0.2005 -0.30568,-0.3179 2.8943,-3.5545 1.14186,-8.1317 -2.76605,-8.2199 -10e-4,0 0,0 0,0 z"
         id="path147-6-9-8-7-4-5-6-8-9"
         inkscape:connector-curvature="0"
         sodipodi:nodetypes="ccccccccccccccc"
         style="display:inline;opacity:1;stroke-width:0.99887252" />
    </g>
  </g>
</svg>
